<svg viewBox="0 0 1383 351.9" xmlns="http://www.w3.org/2000/svg" xmlns:xlink="http://www.w3.org/1999/xlink"><clipPath id="a"><path d="m0 0h1383v351.9h-1383z" transform="matrix(1 0 0 -1 0 351.9)"/></clipPath><clipPath id="b"><path d="m1290.5 32.9h20.8v14h-20.8z" transform="matrix(1 0 0 -1 0 351.9)"/></clipPath><clipPath id="c"><path d="m1290.5 107.9h20.8v14h-20.8z" transform="matrix(1 0 0 -1 0 351.9)"/></clipPath><clipPath id="d"><path d="m1293.8 182.9h17.5v14h-17.5z" transform="matrix(1 0 0 -1 0 351.9)"/></clipPath><clipPath id="e"><path d="m1293.8 257.9h17.5v14h-17.5z" transform="matrix(1 0 0 -1 0 351.9)"/></clipPath><clipPath id="f"><path d="m1293.8 332.9h17.5v14h-17.5z" transform="matrix(1 0 0 -1 0 351.9)"/></clipPath><clipPath id="g"><path d="m55 32.9h17.5v14h-17.5z" transform="matrix(1 0 0 -1 0 351.9)"/></clipPath><clipPath id="h"><path d="m49.5 56h23v14h-23z" transform="matrix(1 0 0 -1 0 351.9)"/></clipPath><clipPath id="i"><path d="m49.5 79h23v14h-23z" transform="matrix(1 0 0 -1 0 351.9)"/></clipPath><clipPath id="j"><path d="m49.5 102.1h23v14h-23z" transform="matrix(1 0 0 -1 0 351.9)"/></clipPath><clipPath id="k"><path d="m49.5 125.2h23v14h-23z" transform="matrix(1 0 0 -1 0 351.9)"/></clipPath><clipPath id="l"><path d="m49.5 148.3h23v14h-23z" transform="matrix(1 0 0 -1 0 351.9)"/></clipPath><clipPath id="m"><path d="m49.5 171.4h23v14h-23z" transform="matrix(1 0 0 -1 0 351.9)"/></clipPath><clipPath id="n"><path d="m49.5 194.4h23v14h-23z" transform="matrix(1 0 0 -1 0 351.9)"/></clipPath><clipPath id="o"><path d="m49.5 217.5h23v14h-23z" transform="matrix(1 0 0 -1 0 351.9)"/></clipPath><clipPath id="p"><path d="m49.5 240.6h23v14h-23z" transform="matrix(1 0 0 -1 0 351.9)"/></clipPath><clipPath id="q"><path d="m44 263.7h28.5v14h-28.6z" transform="matrix(1 0 0 -1 0 351.9)"/></clipPath><clipPath id="r"><path d="m44.7 286.7h27.8v14h-27.8z" transform="matrix(1 0 0 -1 0 351.9)"/></clipPath><clipPath id="s"><path d="m44 309.8h28.5v14h-28.6z" transform="matrix(1 0 0 -1 0 351.9)"/></clipPath><clipPath id="t"><path d="m44 332.9h28.5v14h-28.6z" transform="matrix(1 0 0 -1 0 351.9)"/></clipPath><clipPath id="u"><path d="m0 0h1383v351.9h-1383z" transform="matrix(1 0 0 -1 0 351.9)"/></clipPath><clipPath id="v"><path d="m95 23.4h25.2v14h-25.2z" transform="matrix(1 0 0 -1 0 351.9)"/></clipPath><clipPath id="w"><path d="m147.1 23.4h25.3v14h-25.4z" transform="matrix(1 0 0 -1 0 351.9)"/></clipPath><clipPath id="x"><path d="m199.3 23.4h25.3v14h-25.3z" transform="matrix(1 0 0 -1 0 351.9)"/></clipPath><clipPath id="y"><path d="m251.5 23.4h25.2v14h-25.2z" transform="matrix(1 0 0 -1 0 351.9)"/></clipPath><clipPath id="z"><path d="m303.7 23.4h25.2v14h-25.2z" transform="matrix(1 0 0 -1 0 351.9)"/></clipPath><clipPath id="A"><path d="m355.8 23.4h25.3v14h-25.3z" transform="matrix(1 0 0 -1 0 351.9)"/></clipPath><clipPath id="B"><path d="m408 23.4h25.3v14h-25.3z" transform="matrix(1 0 0 -1 0 351.9)"/></clipPath><clipPath id="C"><path d="m460.2 23.4h25.2v14h-25.2z" transform="matrix(1 0 0 -1 0 351.9)"/></clipPath><clipPath id="D"><path d="m512.4 23.4h25.2v14h-25.2z" transform="matrix(1 0 0 -1 0 351.9)"/></clipPath><clipPath id="E"><path d="m564.5 23.4h25.3v14h-25.3z" transform="matrix(1 0 0 -1 0 351.9)"/></clipPath><clipPath id="F"><path d="m616.7 23.4h25.2v14h-25.2z" transform="matrix(1 0 0 -1 0 351.9)"/></clipPath><clipPath id="G"><path d="m669.2 23.4h24.6v14h-24.6z" transform="matrix(1 0 0 -1 0 351.9)"/></clipPath><clipPath id="H"><path d="m721 23.4h25.3v14h-25.3z" transform="matrix(1 0 0 -1 0 351.9)"/></clipPath><clipPath id="I"><path d="m773.2 23.4h25.3v14h-25.3z" transform="matrix(1 0 0 -1 0 351.9)"/></clipPath><clipPath id="J"><path d="m825.4 23.4h25.2v14h-25.2z" transform="matrix(1 0 0 -1 0 351.9)"/></clipPath><clipPath id="K"><path d="m877.6 23.4h25.2v14h-25.2z" transform="matrix(1 0 0 -1 0 351.9)"/></clipPath><clipPath id="L"><path d="m929.7 23.4h25.3v14h-25.3z" transform="matrix(1 0 0 -1 0 351.9)"/></clipPath><clipPath id="M"><path d="m982 23.4h25.2v14h-25.3z" transform="matrix(1 0 0 -1 0 351.9)"/></clipPath><clipPath id="N"><path d="m1034 23.4h25.3v14h-25.2z" transform="matrix(1 0 0 -1 0 351.9)"/></clipPath><clipPath id="O"><path d="m1086.3 23.4h25.2v14h-25.2z" transform="matrix(1 0 0 -1 0 351.9)"/></clipPath><clipPath id="P"><path d="m1138.4 23.4h25.3v14h-25.3z" transform="matrix(1 0 0 -1 0 351.9)"/></clipPath><clipPath id="Q"><path d="m1190.6 23.4h25.3v14h-25.3z" transform="matrix(1 0 0 -1 0 351.9)"/></clipPath><clipPath id="R"><path d="m1242.8 23.4h25.2v14h-25.2z" transform="matrix(1 0 0 -1 0 351.9)"/></clipPath><clipPath id="S"><path d="m109 40h21v108h-21z" transform="matrix(1 0 0 -1 0 351.9)"/></clipPath><clipPath id="T"><path d="m0 0h21v108h-21z" transform="translate(109 203.9)"/></clipPath><clipPath id="U"><path d="m0 0h21v108h-21z" transform="translate(109 203.9)"/></clipPath><clipPath id="V"><path d="m161 40h21v111h-21z" transform="matrix(1 0 0 -1 0 351.9)"/></clipPath><clipPath id="W"><path d="m0 0h21v111h-21z" transform="translate(161 200.9)"/></clipPath><clipPath id="X"><path d="m0 0h21v111h-21z" transform="translate(161 200.9)"/></clipPath><clipPath id="Y"><path d="m213 40h21v116h-21z" transform="matrix(1 0 0 -1 0 351.9)"/></clipPath><clipPath id="Z"><path d="m0 0h21v116h-21z" transform="translate(213 195.9)"/></clipPath><clipPath id="aa"><path d="m0 0h21v116h-21z" transform="translate(213 195.9)"/></clipPath><clipPath id="ab"><path d="m265 40h21v119h-21z" transform="matrix(1 0 0 -1 0 351.9)"/></clipPath><clipPath id="ac"><path d="m0 0h21v119h-21z" transform="translate(265 192.9)"/></clipPath><clipPath id="ad"><path d="m0 0h21v119h-21z" transform="translate(265 192.9)"/></clipPath><clipPath id="ae"><path d="m317 40h21v127h-21z" transform="matrix(1 0 0 -1 0 351.9)"/></clipPath><clipPath id="af"><path d="m0 0h21v127h-21z" transform="translate(317 184.9)"/></clipPath><clipPath id="ag"><path d="m0 0h21v127h-21z" transform="translate(317 184.9)"/></clipPath><clipPath id="ah"><path d="m370 40h20v139h-20z" transform="matrix(1 0 0 -1 0 351.9)"/></clipPath><clipPath id="ai"><path d="m0 0h20v139h-20z" transform="translate(370 172.9)"/></clipPath><clipPath id="aj"><path d="m0 0h20v139h-20z" transform="translate(370 172.9)"/></clipPath><clipPath id="ak"><path d="m422 40h21v143h-21z" transform="matrix(1 0 0 -1 0 351.9)"/></clipPath><clipPath id="al"><path d="m0 0h21v143h-21z" transform="translate(422 168.9)"/></clipPath><clipPath id="am"><path d="m0 0h21v143h-21z" transform="translate(422 168.9)"/></clipPath><clipPath id="an"><path d="m474 40h21v149h-21z" transform="matrix(1 0 0 -1 0 351.9)"/></clipPath><clipPath id="ao"><path d="m0 0h21v149h-21z" transform="translate(474 162.9)"/></clipPath><clipPath id="ap"><path d="m0 0h21v149h-21z" transform="translate(474 162.9)"/></clipPath><clipPath id="aq"><path d="m526 40h21v164h-21z" transform="matrix(1 0 0 -1 0 351.9)"/></clipPath><clipPath id="ar"><path d="m0 0h21v164h-21z" transform="translate(526 147.9)"/></clipPath><clipPath id="as"><path d="m0 0h21v164h-21z" transform="translate(526 147.9)"/></clipPath><clipPath id="at"><path d="m578 40h21v171h-21z" transform="matrix(1 0 0 -1 0 351.9)"/></clipPath><clipPath id="au"><path d="m0 0h21v171h-21z" transform="translate(578 140.9)"/></clipPath><clipPath id="av"><path d="m0 0h21v171h-21z" transform="translate(578 140.9)"/></clipPath><clipPath id="aw"><path d="m630 40h21v183h-21z" transform="matrix(1 0 0 -1 0 351.9)"/></clipPath><clipPath id="ax"><path d="m0 0h21v183h-21z" transform="translate(630 128.9)"/></clipPath><clipPath id="ay"><path d="m0 0h21v183h-21z" transform="translate(630 128.9)"/></clipPath><clipPath id="az"><path d="m683 40h20v196h-20z" transform="matrix(1 0 0 -1 0 351.9)"/></clipPath><clipPath id="aA"><path d="m0 0h20v196h-20z" transform="translate(683 115.9)"/></clipPath><clipPath id="aB"><path d="m0 0h20v196h-20z" transform="translate(683 115.9)"/></clipPath><clipPath id="aC"><path d="m735 40h21v207h-21z" transform="matrix(1 0 0 -1 0 351.9)"/></clipPath><clipPath id="aD"><path d="m0 0h21v207h-21z" transform="translate(735 104.9)"/></clipPath><clipPath id="aE"><path d="m0 0h21v207h-21z" transform="translate(735 104.9)"/></clipPath><clipPath id="aF"><path d="m787 40h21v220h-21z" transform="matrix(1 0 0 -1 0 351.9)"/></clipPath><clipPath id="aG"><path d="m0 0h21v220h-21z" transform="translate(787 91.9)"/></clipPath><clipPath id="aH"><path d="m0 0h21v220h-21z" transform="translate(787 91.9)"/></clipPath><clipPath id="aI"><path d="m839 40h21v226h-21z" transform="matrix(1 0 0 -1 0 351.9)"/></clipPath><clipPath id="aJ"><path d="m0 0h21v226h-21z" transform="translate(839 85.9)"/></clipPath><clipPath id="aK"><path d="m0 0h21v226h-21z" transform="translate(839 85.9)"/></clipPath><clipPath id="aL"><path d="m891 40h21v233h-21z" transform="matrix(1 0 0 -1 0 351.9)"/></clipPath><clipPath id="aM"><path d="m0 0h21v233h-21z" transform="translate(891 78.9)"/></clipPath><clipPath id="aN"><path d="m0 0h21v233h-21z" transform="translate(891 78.9)"/></clipPath><clipPath id="aO"><path d="m943 40h21v239h-21z" transform="matrix(1 0 0 -1 0 351.9)"/></clipPath><clipPath id="aP"><path d="m0 0h21v239h-21z" transform="translate(943 72.9)"/></clipPath><clipPath id="aQ"><path d="m0 0h21v239h-21z" transform="translate(943 72.9)"/></clipPath><clipPath id="aR"><path d="m996 40h20v241h-20z" transform="matrix(1 0 0 -1 0 351.9)"/></clipPath><clipPath id="aS"><path d="m0 0h20v241h-20z" transform="translate(996 70.9)"/></clipPath><clipPath id="aT"><path d="m0 0h20v241h-20z" transform="translate(996 70.9)"/></clipPath><clipPath id="aU"><path d="m1048 40h21v252h-21z" transform="matrix(1 0 0 -1 0 351.9)"/></clipPath><clipPath id="aV"><path d="m0 0h21v252h-21z" transform="translate(1048 59.9)"/></clipPath><clipPath id="aW"><path d="m0 0h21v252h-21z" transform="translate(1048 59.9)"/></clipPath><clipPath id="aX"><path d="m1100 40h21v258h-21z" transform="matrix(1 0 0 -1 0 351.9)"/></clipPath><clipPath id="aY"><path d="m0 0h21v258h-21z" transform="translate(1100 53.9)"/></clipPath><clipPath id="aZ"><path d="m0 0h21v258h-21z" transform="translate(1100 53.9)"/></clipPath><clipPath id="a0"><path d="m1152 40h21v266h-21z" transform="matrix(1 0 0 -1 0 351.9)"/></clipPath><clipPath id="a1"><path d="m0 0h21v266h-21z" transform="translate(1152 45.9)"/></clipPath><clipPath id="a2"><path d="m0 0h21v266h-21z" transform="translate(1152 45.9)"/></clipPath><clipPath id="a3"><path d="m1204 40h21v266h-21z" transform="matrix(1 0 0 -1 0 351.9)"/></clipPath><clipPath id="a4"><path d="m0 0h21v266h-21z" transform="translate(1204 45.9)"/></clipPath><clipPath id="a5"><path d="m0 0h21v266h-21z" transform="translate(1204 45.9)"/></clipPath><clipPath id="a6"><path d="m1256 40h21v296h-21z" transform="matrix(1 0 0 -1 0 351.9)"/></clipPath><clipPath id="a7"><path d="m0 0h21v296h-21z" transform="translate(1256 15.9)"/></clipPath><clipPath id="a8"><path d="m0 0h21v296h-21z" transform="translate(1256 15.9)"/></clipPath><clipPath id="a9"><path d="m86 40h21v115h-21z" transform="matrix(1 0 0 -1 0 351.9)"/></clipPath><clipPath id="ba"><path d="m0 0h21v115h-21z" transform="translate(86 196.9)"/></clipPath><clipPath id="bb"><path d="m0 0h21v115h-21z" transform="translate(86 196.9)"/></clipPath><clipPath id="bc"><path d="m138 40h21v116h-21z" transform="matrix(1 0 0 -1 0 351.9)"/></clipPath><clipPath id="bd"><path d="m0 0h21v116h-21z" transform="translate(138 195.9)"/></clipPath><clipPath id="be"><path d="m0 0h21v116h-21z" transform="translate(138 195.9)"/></clipPath><clipPath id="bf"><path d="m190 40h21v117h-21z" transform="matrix(1 0 0 -1 0 351.9)"/></clipPath><clipPath id="bg"><path d="m0 0h21v117h-21z" transform="translate(190 194.9)"/></clipPath><clipPath id="bh"><path d="m0 0h21v117h-21z" transform="translate(190 194.9)"/></clipPath><clipPath id="bi"><path d="m242 40h21v118h-21z" transform="matrix(1 0 0 -1 0 351.9)"/></clipPath><clipPath id="bj"><path d="m0 0h21v118h-21z" transform="translate(242 193.9)"/></clipPath><clipPath id="bk"><path d="m0 0h21v118h-21z" transform="translate(242 193.9)"/></clipPath><clipPath id="bl"><path d="m294 40h21v116h-21z" transform="matrix(1 0 0 -1 0 351.9)"/></clipPath><clipPath id="bm"><path d="m0 0h21v116h-21z" transform="translate(294 195.9)"/></clipPath><clipPath id="bn"><path d="m0 0h21v116h-21z" transform="translate(294 195.9)"/></clipPath><clipPath id="bo"><path d="m347 40h20v115h-20z" transform="matrix(1 0 0 -1 0 351.9)"/></clipPath><clipPath id="bp"><path d="m0 0h20v115h-20z" transform="translate(347 196.9)"/></clipPath><clipPath id="bq"><path d="m0 0h20v115h-20z" transform="translate(347 196.9)"/></clipPath><clipPath id="br"><path d="m399 40h21v115h-21z" transform="matrix(1 0 0 -1 0 351.9)"/></clipPath><clipPath id="bs"><path d="m0 0h21v115h-21z" transform="translate(399 196.9)"/></clipPath><clipPath id="bt"><path d="m0 0h21v115h-21z" transform="translate(399 196.9)"/></clipPath><clipPath id="bu"><path d="m451 40h21v116h-21z" transform="matrix(1 0 0 -1 0 351.9)"/></clipPath><clipPath id="bv"><path d="m0 0h21v116h-21z" transform="translate(451 195.9)"/></clipPath><clipPath id="bw"><path d="m0 0h21v116h-21z" transform="translate(451 195.9)"/></clipPath><clipPath id="bx"><path d="m503 40h21v115h-21z" transform="matrix(1 0 0 -1 0 351.9)"/></clipPath><clipPath id="by"><path d="m0 0h21v115h-21z" transform="translate(503 196.9)"/></clipPath><clipPath id="bz"><path d="m0 0h21v115h-21z" transform="translate(503 196.9)"/></clipPath><clipPath id="bA"><path d="m555 40h21v117h-21z" transform="matrix(1 0 0 -1 0 351.9)"/></clipPath><clipPath id="bB"><path d="m0 0h21v117h-21z" transform="translate(555 194.9)"/></clipPath><clipPath id="bC"><path d="m0 0h21v117h-21z" transform="translate(555 194.9)"/></clipPath><clipPath id="bD"><path d="m607 40h21v117h-21z" transform="matrix(1 0 0 -1 0 351.9)"/></clipPath><clipPath id="bE"><path d="m0 0h21v117h-21z" transform="translate(607 194.9)"/></clipPath><clipPath id="bF"><path d="m0 0h21v117h-21z" transform="translate(607 194.9)"/></clipPath><clipPath id="bG"><path d="m660 40h20v116h-20z" transform="matrix(1 0 0 -1 0 351.9)"/></clipPath><clipPath id="bH"><path d="m0 0h20v116h-20z" transform="translate(660 195.9)"/></clipPath><clipPath id="bI"><path d="m0 0h20v116h-20z" transform="translate(660 195.9)"/></clipPath><clipPath id="bJ"><path d="m712 40h21v116h-21z" transform="matrix(1 0 0 -1 0 351.9)"/></clipPath><clipPath id="bK"><path d="m0 0h21v116h-21z" transform="translate(712 195.9)"/></clipPath><clipPath id="bL"><path d="m0 0h21v116h-21z" transform="translate(712 195.9)"/></clipPath><clipPath id="bM"><path d="m764 40h21v116h-21z" transform="matrix(1 0 0 -1 0 351.9)"/></clipPath><clipPath id="bN"><path d="m0 0h21v116h-21z" transform="translate(764 195.9)"/></clipPath><clipPath id="bO"><path d="m0 0h21v116h-21z" transform="translate(764 195.9)"/></clipPath><clipPath id="bP"><path d="m816 40h21v116h-21z" transform="matrix(1 0 0 -1 0 351.9)"/></clipPath><clipPath id="bQ"><path d="m0 0h21v116h-21z" transform="translate(816 195.9)"/></clipPath><clipPath id="bR"><path d="m0 0h21v116h-21z" transform="translate(816 195.9)"/></clipPath><clipPath id="bS"><path d="m868 40h21v116h-21z" transform="matrix(1 0 0 -1 0 351.9)"/></clipPath><clipPath id="bT"><path d="m0 0h21v116h-21z" transform="translate(868 195.9)"/></clipPath><clipPath id="bU"><path d="m0 0h21v116h-21z" transform="translate(868 195.9)"/></clipPath><clipPath id="bV"><path d="m920 40h21v116h-21z" transform="matrix(1 0 0 -1 0 351.9)"/></clipPath><clipPath id="bW"><path d="m0 0h21v116h-21z" transform="translate(920 195.9)"/></clipPath><clipPath id="bX"><path d="m0 0h21v116h-21z" transform="translate(920 195.9)"/></clipPath><clipPath id="bY"><path d="m973 40h21v116h-21z" transform="matrix(1 0 0 -1 0 351.9)"/></clipPath><clipPath id="bZ"><path d="m0 0h21v116h-21z" transform="translate(973 195.9)"/></clipPath><clipPath id="b0"><path d="m0 0h21v116h-21z" transform="translate(973 195.9)"/></clipPath><clipPath id="b1"><path d="m1025 40h21v116h-21z" transform="matrix(1 0 0 -1 0 351.9)"/></clipPath><clipPath id="b2"><path d="m0 0h21v116h-21z" transform="translate(1025 195.9)"/></clipPath><clipPath id="b3"><path d="m0 0h21v116h-21z" transform="translate(1025 195.9)"/></clipPath><clipPath id="b4"><path d="m1077 40h21v117h-21z" transform="matrix(1 0 0 -1 0 351.9)"/></clipPath><clipPath id="b5"><path d="m0 0h21v117h-21z" transform="translate(1077 194.9)"/></clipPath><clipPath id="b6"><path d="m0 0h21v117h-21z" transform="translate(1077 194.9)"/></clipPath><clipPath id="b7"><path d="m1129 40h21v118h-21z" transform="matrix(1 0 0 -1 0 351.9)"/></clipPath><clipPath id="b8"><path d="m0 0h21v118h-21z" transform="translate(1129 193.9)"/></clipPath><clipPath id="b9"><path d="m0 0h21v118h-21z" transform="translate(1129 193.9)"/></clipPath><clipPath id="ca"><path d="m1181 40h21v118h-21z" transform="matrix(1 0 0 -1 0 351.9)"/></clipPath><clipPath id="cb"><path d="m0 0h21v118h-21z" transform="translate(1181 193.9)"/></clipPath><clipPath id="cc"><path d="m0 0h21v118h-21z" transform="translate(1181 193.9)"/></clipPath><clipPath id="cd"><path d="m1234 40h20v120h-20z" transform="matrix(1 0 0 -1 0 351.9)"/></clipPath><clipPath id="ce"><path d="m0 0h20v120h-20z" transform="translate(1234 191.9)"/></clipPath><clipPath id="cf"><path d="m0 0h20v120h-20z" transform="translate(1234 191.9)"/></clipPath><clipPath id="cg"><path d="m0 0h1383v351.9h-1383z" transform="matrix(1 0 0 -1 0 351.9)"/></clipPath><clipPath id="ch"><path d="m99.6 64.3h1163.8v269.1h-1163.8z" transform="matrix(1 0 0 -1 0 351.9)"/></clipPath><clipPath id="ci"><path d="m79.1 37.5h1204.8v304.8h-1204.8z" transform="matrix(1 0 0 -1 0 351.9)"/></clipPath><clipPath id="cj"><path d="m0 0h1383v351.9h-1383z" transform="matrix(1 0 0 -1 0 351.9)"/></clipPath><clipPath id="ck"><path d="m663 4.8h12v8.4h-12z" transform="matrix(1 0 0 -1 0 351.9)"/></clipPath><clipPath id="cl"><path d="m663 3h12v12h-12z" transform="matrix(1 0 0 -1 0 351.9)"/></clipPath><g clip-path="url(#a)" fill="none" stroke="#b8b8b8" stroke-width=".3"><path d="m82 289.4h1200m-1200-24h1200m-1200-23h1200m-1200-23h1200m-1200-23h1200m-1200-23h1200m-1200-23h1200m-1200-23h1200m-1200-23h1200m-1200-23h1200m-1200-23h1200m-1200-23h1200m-1200-23h1200"/></g><g clip-path="url(#b)"><text font-family="Helvetica" font-size="10" transform="translate(1292 315.7)"><tspan x="0 3.3 8.9" y="0">-2%</tspan></text></g><g clip-path="url(#c)"><text font-family="Helvetica" font-size="10" transform="translate(1292 240.7)"><tspan x="0 3.3 8.9" y="0">-1%</tspan></text></g><g clip-path="url(#d)"><text font-family="Helvetica" font-size="10" transform="translate(1295.3 165.7)"><tspan x="0 5.6" y="0">0%</tspan></text></g><g clip-path="url(#e)"><text font-family="Helvetica" font-size="10" transform="translate(1295.3 90.7)"><tspan x="0 5.6" y="0">1%</tspan></text></g><g clip-path="url(#f)"><text font-family="Helvetica" font-size="10" transform="translate(1295.3 15.7)"><tspan x="0 5.6" y="0">2%</tspan></text></g><g clip-path="url(#g)"><text font-family="Helvetica" font-size="10" transform="translate(56.5 315.7)"><tspan x="0 5.6" y="0">0%</tspan></text></g><g clip-path="url(#h)"><text font-family="Helvetica" font-size="10" transform="translate(51 292.6)"><tspan x="0 5.6 11.1" y="0">10%</tspan></text></g><g clip-path="url(#i)"><text font-family="Helvetica" font-size="10" transform="translate(51 269.5)"><tspan x="0 5.6 11.1" y="0">20%</tspan></text></g><g clip-path="url(#j)"><text font-family="Helvetica" font-size="10" transform="translate(51 246.5)"><tspan x="0 5.6 11.1" y="0">30%</tspan></text></g><g clip-path="url(#k)"><text font-family="Helvetica" font-size="10" transform="translate(51 223.4)"><tspan x="0 5.6 11.1" y="0">40%</tspan></text></g><g clip-path="url(#l)"><text font-family="Helvetica" font-size="10" transform="translate(51 200.3)"><tspan x="0 5.6 11.1" y="0">50%</tspan></text></g><g clip-path="url(#m)"><text font-family="Helvetica" font-size="10" transform="translate(51 177.2)"><tspan x="0 5.6 11.1" y="0">60%</tspan></text></g><g clip-path="url(#n)"><text font-family="Helvetica" font-size="10" transform="translate(51 154.2)"><tspan x="0 5.6 11.1" y="0">70%</tspan></text></g><g clip-path="url(#o)"><text font-family="Helvetica" font-size="10" transform="translate(51 131)"><tspan x="0 5.6 11.1" y="0">80%</tspan></text></g><g clip-path="url(#p)"><text font-family="Helvetica" font-size="10" transform="translate(51 108)"><tspan x="0 5.6 11.1" y="0">90%</tspan></text></g><g clip-path="url(#q)"><text font-family="Helvetica" font-size="10" transform="translate(45.4 85)"><tspan x="0 5.6 11.1 16.7" y="0">100%</tspan></text></g><g clip-path="url(#r)"><text font-family="Helvetica" font-size="10" transform="translate(46.2 61.9)"><tspan x="0 4.8 10.4 16" y="0">110%</tspan></text></g><g clip-path="url(#s)"><text font-family="Helvetica" font-size="10" transform="translate(45.4 38.8)"><tspan x="0 5.6 11.1 16.7" y="0">120%</tspan></text></g><g clip-path="url(#t)"><text font-family="Helvetica" font-size="10" transform="translate(45.4 15.7)"><tspan x="0 5.6 11.1 16.7" y="0">130%</tspan></text></g><g clip-path="url(#u)"><path d="m81.5 312.4h1200" fill="none" stroke="#000" stroke-linecap="square"/></g><g clip-path="url(#v)"><text font-family="Helvetica" font-size="10" transform="translate(96.5 325.2)"><tspan x="0 5.6 11.1 16.7" y="0">2000</tspan></text></g><g clip-path="url(#w)"><text font-family="Helvetica" font-size="10" transform="translate(148.6 325.2)"><tspan x="0 5.6 11.1 16.7" y="0">2001</tspan></text></g><g clip-path="url(#x)"><text font-family="Helvetica" font-size="10" transform="translate(200.8 325.2)"><tspan x="0 5.6 11.1 16.7" y="0">2002</tspan></text></g><g clip-path="url(#y)"><text font-family="Helvetica" font-size="10" transform="translate(253 325.2)"><tspan x="0 5.6 11.1 16.7" y="0">2003</tspan></text></g><g clip-path="url(#z)"><text font-family="Helvetica" font-size="10" transform="translate(305.2 325.2)"><tspan x="0 5.6 11.1 16.7" y="0">2004</tspan></text></g><g clip-path="url(#A)"><text font-family="Helvetica" font-size="10" transform="translate(357.3 325.2)"><tspan x="0 5.6 11.1 16.7" y="0">2005</tspan></text></g><g clip-path="url(#B)"><text font-family="Helvetica" font-size="10" transform="translate(409.5 325.2)"><tspan x="0 5.6 11.1 16.7" y="0">2006</tspan></text></g><g clip-path="url(#C)"><text font-family="Helvetica" font-size="10" transform="translate(461.7 325.2)"><tspan x="0 5.6 11.1 16.7" y="0">2007</tspan></text></g><g clip-path="url(#D)"><text font-family="Helvetica" font-size="10" transform="translate(513.9 325.2)"><tspan x="0 5.6 11.1 16.7" y="0">2008</tspan></text></g><g clip-path="url(#E)"><text font-family="Helvetica" font-size="10" transform="translate(566 325.2)"><tspan x="0 5.6 11.1 16.7" y="0">2009</tspan></text></g><g clip-path="url(#F)"><text font-family="Helvetica" font-size="10" transform="translate(618.2 325.2)"><tspan x="0 5.6 11.1 16.7" y="0">2010</tspan></text></g><g clip-path="url(#G)"><text font-family="Helvetica" font-size="10" transform="translate(670.7 325.2)"><tspan x="0 5.6 11.1 15.9" y="0">2011</tspan></text></g><g clip-path="url(#H)"><text font-family="Helvetica" font-size="10" transform="translate(722.5 325.2)"><tspan x="0 5.6 11.1 16.7" y="0">2012</tspan></text></g><g clip-path="url(#I)"><text font-family="Helvetica" font-size="10" transform="translate(774.7 325.2)"><tspan x="0 5.6 11.1 16.7" y="0">2013</tspan></text></g><g clip-path="url(#J)"><text font-family="Helvetica" font-size="10" transform="translate(826.9 325.2)"><tspan x="0 5.6 11.1 16.7" y="0">2014</tspan></text></g><g clip-path="url(#K)"><text font-family="Helvetica" font-size="10" transform="translate(879 325.2)"><tspan x="0 5.6 11.1 16.7" y="0">2015</tspan></text></g><g clip-path="url(#L)"><text font-family="Helvetica" font-size="10" transform="translate(931.2 325.2)"><tspan x="0 5.6 11.1 16.7" y="0">2016</tspan></text></g><g clip-path="url(#M)"><text font-family="Helvetica" font-size="10" transform="translate(983.4 325.2)"><tspan x="0 5.6 11.1 16.7" y="0">2017</tspan></text></g><g clip-path="url(#N)"><text font-family="Helvetica" font-size="10" transform="translate(1035.6 325.2)"><tspan x="0 5.6 11.1 16.7" y="0">2018</tspan></text></g><g clip-path="url(#O)"><text font-family="Helvetica" font-size="10" transform="translate(1087.8 325.2)"><tspan x="0 5.6 11.1 16.7" y="0">2019</tspan></text></g><g clip-path="url(#P)"><text font-family="Helvetica" font-size="10" transform="translate(1140 325.2)"><tspan x="0 5.6 11.1 16.7" y="0">2020</tspan></text></g><g clip-path="url(#Q)"><text font-family="Helvetica" font-size="10" transform="translate(1192.1 325.2)"><tspan x="0 5.6 11.1 16.7" y="0">2021</tspan></text></g><g clip-path="url(#R)"><text font-family="Helvetica" font-size="10" transform="translate(1244.3 325.2)"><tspan x="0 5.6 11.1 16.7" y="0">2022</tspan></text></g><g clip-path="url(#S)"><g clip-path="url(#T)"><g clip-path="url(#U)"><path d="m109 203.9h21v108h-21z" fill="#dcba3e"/></g></g></g><g clip-path="url(#V)"><g clip-path="url(#W)"><g clip-path="url(#X)"><path d="m161 200.9h21v111h-21z" fill="#dcba3e"/></g></g></g><g clip-path="url(#Y)"><g clip-path="url(#Z)"><g clip-path="url(#aa)"><path d="m213 195.9h21v116h-21z" fill="#dcba3e"/></g></g></g><g clip-path="url(#ab)"><g clip-path="url(#ac)"><g clip-path="url(#ad)"><path d="m265 192.9h21v119h-21z" fill="#dcba3e"/></g></g></g><g clip-path="url(#ae)"><g clip-path="url(#af)"><g clip-path="url(#ag)"><path d="m317 184.9h21v127h-21z" fill="#dcba3e"/></g></g></g><g clip-path="url(#ah)"><g clip-path="url(#ai)"><g clip-path="url(#aj)"><path d="m370 172.9h20v139h-20z" fill="#dcba3e"/></g></g></g><g clip-path="url(#ak)"><g clip-path="url(#al)"><g clip-path="url(#am)"><path d="m422 168.9h21v143h-21z" fill="#dcba3e"/></g></g></g><g clip-path="url(#an)"><g clip-path="url(#ao)"><g clip-path="url(#ap)"><path d="m474 162.9h21v149h-21z" fill="#dcba3e"/></g></g></g><g clip-path="url(#aq)"><g clip-path="url(#ar)"><g clip-path="url(#as)"><path d="m526 147.9h21v164h-21z" fill="#dcba3e"/></g></g></g><g clip-path="url(#at)"><g clip-path="url(#au)"><g clip-path="url(#av)"><path d="m578 140.9h21v171h-21z" fill="#dcba3e"/></g></g></g><g clip-path="url(#aw)"><g clip-path="url(#ax)"><g clip-path="url(#ay)"><path d="m630 128.9h21v183h-21z" fill="#dcba3e"/></g></g></g><g clip-path="url(#az)"><g clip-path="url(#aA)"><g clip-path="url(#aB)"><path d="m683 115.9h20v196h-20z" fill="#dcba3e"/></g></g></g><g clip-path="url(#aC)"><g clip-path="url(#aD)"><g clip-path="url(#aE)"><path d="m735 104.9h21v207h-21z" fill="#dcba3e"/></g></g></g><g clip-path="url(#aF)"><g clip-path="url(#aG)"><g clip-path="url(#aH)"><path d="m787 91.9h21v220h-21z" fill="#dcba3e"/></g></g></g><g clip-path="url(#aI)"><g clip-path="url(#aJ)"><g clip-path="url(#aK)"><path d="m839 85.9h21v226h-21z" fill="#dcba3e"/></g></g></g><g clip-path="url(#aL)"><g clip-path="url(#aM)"><g clip-path="url(#aN)"><path d="m891 78.9h21v233h-21z" fill="#dcba3e"/></g></g></g><g clip-path="url(#aO)"><g clip-path="url(#aP)"><g clip-path="url(#aQ)"><path d="m943 72.9h21v239h-21z" fill="#dcba3e"/></g></g></g><g clip-path="url(#aR)"><g clip-path="url(#aS)"><g clip-path="url(#aT)"><path d="m996 70.9h20v241h-20z" fill="#dcba3e"/></g></g></g><g clip-path="url(#aU)"><g clip-path="url(#aV)"><g clip-path="url(#aW)"><path d="m1048 59.9h21v252h-21z" fill="#dcba3e"/></g></g></g><g clip-path="url(#aX)"><g clip-path="url(#aY)"><g clip-path="url(#aZ)"><path d="m1100 53.9h21v258h-21z" fill="#dcba3e"/></g></g></g><g clip-path="url(#a0)"><g clip-path="url(#a1)"><g clip-path="url(#a2)"><path d="m1152 45.9h21v266h-21z" fill="#dcba3e"/></g></g></g><g clip-path="url(#a3)"><g clip-path="url(#a4)"><g clip-path="url(#a5)"><path d="m1204 45.9h21v266h-21z" fill="#dcba3e"/></g></g></g><g clip-path="url(#a6)"><g clip-path="url(#a7)"><g clip-path="url(#a8)"><path d="m1256 15.9h21v296h-21z" fill="#dcba3e"/></g></g></g><g clip-path="url(#a9)"><g clip-path="url(#ba)"><g clip-path="url(#bb)"><path d="m86 196.9h21v115h-21z" fill="#035494"/></g></g></g><g clip-path="url(#bc)"><g clip-path="url(#bd)"><g clip-path="url(#be)"><path d="m138 195.9h21v116h-21z" fill="#035494"/></g></g></g><g clip-path="url(#bf)"><g clip-path="url(#bg)"><g clip-path="url(#bh)"><path d="m190 194.9h21v117h-21z" fill="#035494"/></g></g></g><g clip-path="url(#bi)"><g clip-path="url(#bj)"><g clip-path="url(#bk)"><path d="m242 193.9h21v118h-21z" fill="#035494"/></g></g></g><g clip-path="url(#bl)"><g clip-path="url(#bm)"><g clip-path="url(#bn)"><path d="m294 195.9h21v116h-21z" fill="#035494"/></g></g></g><g clip-path="url(#bo)"><g clip-path="url(#bp)"><g clip-path="url(#bq)"><path d="m347 196.9h20v115h-20z" fill="#035494"/></g></g></g><g clip-path="url(#br)"><g clip-path="url(#bs)"><g clip-path="url(#bt)"><path d="m399 196.9h21v115h-21z" fill="#035494"/></g></g></g><g clip-path="url(#bu)"><g clip-path="url(#bv)"><g clip-path="url(#bw)"><path d="m451 195.9h21v116h-21z" fill="#035494"/></g></g></g><g clip-path="url(#bx)"><g clip-path="url(#by)"><g clip-path="url(#bz)"><path d="m503 196.9h21v115h-21z" fill="#035494"/></g></g></g><g clip-path="url(#bA)"><g clip-path="url(#bB)"><g clip-path="url(#bC)"><path d="m555 194.9h21v117h-21z" fill="#035494"/></g></g></g><g clip-path="url(#bD)"><g clip-path="url(#bE)"><g clip-path="url(#bF)"><path d="m607 194.9h21v117h-21z" fill="#035494"/></g></g></g><g clip-path="url(#bG)"><g clip-path="url(#bH)"><g clip-path="url(#bI)"><path d="m660 195.9h20v116h-20z" fill="#035494"/></g></g></g><g clip-path="url(#bJ)"><g clip-path="url(#bK)"><g clip-path="url(#bL)"><path d="m712 195.9h21v116h-21z" fill="#035494"/></g></g></g><g clip-path="url(#bM)"><g clip-path="url(#bN)"><g clip-path="url(#bO)"><path d="m764 195.9h21v116h-21z" fill="#035494"/></g></g></g><g clip-path="url(#bP)"><g clip-path="url(#bQ)"><g clip-path="url(#bR)"><path d="m816 195.9h21v116h-21z" fill="#035494"/></g></g></g><g clip-path="url(#bS)"><g clip-path="url(#bT)"><g clip-path="url(#bU)"><path d="m868 195.9h21v116h-21z" fill="#035494"/></g></g></g><g clip-path="url(#bV)"><g clip-path="url(#bW)"><g clip-path="url(#bX)"><path d="m920 195.9h21v116h-21z" fill="#035494"/></g></g></g><g clip-path="url(#bY)"><g clip-path="url(#bZ)"><g clip-path="url(#b0)"><path d="m973 195.9h21v116h-21z" fill="#035494"/></g></g></g><g clip-path="url(#b1)"><g clip-path="url(#b2)"><g clip-path="url(#b3)"><path d="m1025 195.9h21v116h-21z" fill="#035494"/></g></g></g><g clip-path="url(#b4)"><g clip-path="url(#b5)"><g clip-path="url(#b6)"><path d="m1077 194.9h21v117h-21z" fill="#035494"/></g></g></g><g clip-path="url(#b7)"><g clip-path="url(#b8)"><g clip-path="url(#b9)"><path d="m1129 193.9h21v118h-21z" fill="#035494"/></g></g></g><g clip-path="url(#ca)"><g clip-path="url(#cb)"><g clip-path="url(#cc)"><path d="m1181 193.9h21v118h-21z" fill="#035494"/></g></g></g><g clip-path="url(#cd)"><g clip-path="url(#ce)"><g clip-path="url(#cf)"><path d="m1234 191.9h20v120h-20z" fill="#035494"/></g></g></g><g clip-path="url(#cg)"><g clip-path="url(#ch)"><g clip-path="url(#ci)"><path d="m107.6 162 52.2-75 52.1 45.3 52.2-14.7 52.2 162 52.2-57.8 52.1-90 52.2 15.2 52.2 60 52-180.6 52.2 120.7 52.2 118.1 52.3-118.2h52.1l52.2 30 52.2-44.9 52.2 15 52.1 29.8 52.2-29.8 52.2-14.8 52.2-14.7 52.1.3 52.2-43.6" fill="none" stroke="#70be41" stroke-width="4"/></g></g><path d="m235 336.9h12v12h-12z" fill="#035494"/><text font-family="Helvetica" font-size="15" transform="translate(255.7 348.5)"><tspan x="0 13.6 22 25.3 32.8 36.1 43.6 47 51.1 55.3 63.6 72 79.5 87.8 95.3 102.8 107 115.3 118.7 122.8 131.2 136.2 139.5 147.8 156.2 164.5" y="0">Waikiki fogyasztói árindex</tspan></text></g><g clip-path="url(#cj)"><g clip-path="url(#ck)"><g clip-path="url(#cl)"><path d="m663 342.9h12" fill="none" stroke="#70be41" stroke-width="2.1"/></g></g><text font-family="Helvetica" font-size="15" transform="translate(683.9 348.5)"><tspan x="0 13.6 22 25.3 32.8 36.1 43.6 47 51.1 54.5" y="0">Waikiki infláció</tspan></text><path d="m1017 336.9h12v12h-12z" fill="#dcba3e"/><text font-family="Helvetica" font-size="15" transform="translate(1037.9 348.5)"><tspan x="0 13.6 22 25.3 32.8 36.1 43.6 47 51.1 56.1 64.5 72.8 76.1 80.3 88.6 93.6 102" y="0">Waikiki reál árak</tspan></text></g></svg>