<svg viewBox="0 0 1383 351.9" xmlns="http://www.w3.org/2000/svg" xmlns:xlink="http://www.w3.org/1999/xlink"><clipPath id="a"><path d="m0 0h1383v351.9h-1383z" transform="matrix(1 0 0 -1 0 351.9)"/></clipPath><clipPath id="b"><path d="m1296 32.9h17.5v14h-17.4z" transform="matrix(1 0 0 -1 0 351.9)"/></clipPath><clipPath id="c"><path d="m1296 92.9h17.5v14h-17.4z" transform="matrix(1 0 0 -1 0 351.9)"/></clipPath><clipPath id="d"><path d="m1296 152.9h17.5v14h-17.4z" transform="matrix(1 0 0 -1 0 351.9)"/></clipPath><clipPath id="e"><path d="m1296 212.9h17.5v14h-17.4z" transform="matrix(1 0 0 -1 0 351.9)"/></clipPath><clipPath id="f"><path d="m1296 272.9h17.5v14h-17.4z" transform="matrix(1 0 0 -1 0 351.9)"/></clipPath><clipPath id="g"><path d="m1290.5 332.9h23v14h-23z" transform="matrix(1 0 0 -1 0 351.9)"/></clipPath><clipPath id="h"><path d="m31.7 32.9h40.8v14h-40.8z" transform="matrix(1 0 0 -1 0 351.9)"/></clipPath><clipPath id="i"><path d="m31.7 92.9h40.8v14h-40.8z" transform="matrix(1 0 0 -1 0 351.9)"/></clipPath><clipPath id="j"><path d="m31.7 152.9h40.8v14h-40.8z" transform="matrix(1 0 0 -1 0 351.9)"/></clipPath><clipPath id="k"><path d="m31.7 212.9h40.8v14h-40.8z" transform="matrix(1 0 0 -1 0 351.9)"/></clipPath><clipPath id="l"><path d="m31.7 272.9h40.8v14h-40.8z" transform="matrix(1 0 0 -1 0 351.9)"/></clipPath><clipPath id="m"><path d="m31.7 332.9h40.8v14h-40.8z" transform="matrix(1 0 0 -1 0 351.9)"/></clipPath><clipPath id="n"><path d="m0 0h1383v351.9h-1383z" transform="matrix(1 0 0 -1 0 351.9)"/></clipPath><clipPath id="o"><path d="m95 23.4h25.2v14h-25.2z" transform="matrix(1 0 0 -1 0 351.9)"/></clipPath><clipPath id="p"><path d="m147.1 23.4h25.3v14h-25.4z" transform="matrix(1 0 0 -1 0 351.9)"/></clipPath><clipPath id="q"><path d="m199.3 23.4h25.3v14h-25.3z" transform="matrix(1 0 0 -1 0 351.9)"/></clipPath><clipPath id="r"><path d="m251.5 23.4h25.2v14h-25.2z" transform="matrix(1 0 0 -1 0 351.9)"/></clipPath><clipPath id="s"><path d="m303.7 23.4h25.2v14h-25.2z" transform="matrix(1 0 0 -1 0 351.9)"/></clipPath><clipPath id="t"><path d="m355.8 23.4h25.3v14h-25.3z" transform="matrix(1 0 0 -1 0 351.9)"/></clipPath><clipPath id="u"><path d="m408 23.4h25.3v14h-25.3z" transform="matrix(1 0 0 -1 0 351.9)"/></clipPath><clipPath id="v"><path d="m460.2 23.4h25.2v14h-25.2z" transform="matrix(1 0 0 -1 0 351.9)"/></clipPath><clipPath id="w"><path d="m512.4 23.4h25.2v14h-25.2z" transform="matrix(1 0 0 -1 0 351.9)"/></clipPath><clipPath id="x"><path d="m564.5 23.4h25.3v14h-25.3z" transform="matrix(1 0 0 -1 0 351.9)"/></clipPath><clipPath id="y"><path d="m616.7 23.4h25.2v14h-25.2z" transform="matrix(1 0 0 -1 0 351.9)"/></clipPath><clipPath id="z"><path d="m669.2 23.4h24.6v14h-24.6z" transform="matrix(1 0 0 -1 0 351.9)"/></clipPath><clipPath id="A"><path d="m721 23.4h25.3v14h-25.3z" transform="matrix(1 0 0 -1 0 351.9)"/></clipPath><clipPath id="B"><path d="m773.2 23.4h25.3v14h-25.3z" transform="matrix(1 0 0 -1 0 351.9)"/></clipPath><clipPath id="C"><path d="m825.4 23.4h25.2v14h-25.2z" transform="matrix(1 0 0 -1 0 351.9)"/></clipPath><clipPath id="D"><path d="m877.6 23.4h25.2v14h-25.2z" transform="matrix(1 0 0 -1 0 351.9)"/></clipPath><clipPath id="E"><path d="m929.7 23.4h25.3v14h-25.3z" transform="matrix(1 0 0 -1 0 351.9)"/></clipPath><clipPath id="F"><path d="m982 23.4h25.2v14h-25.3z" transform="matrix(1 0 0 -1 0 351.9)"/></clipPath><clipPath id="G"><path d="m1034 23.4h25.3v14h-25.2z" transform="matrix(1 0 0 -1 0 351.9)"/></clipPath><clipPath id="H"><path d="m1086.3 23.4h25.2v14h-25.2z" transform="matrix(1 0 0 -1 0 351.9)"/></clipPath><clipPath id="I"><path d="m1138.4 23.4h25.3v14h-25.3z" transform="matrix(1 0 0 -1 0 351.9)"/></clipPath><clipPath id="J"><path d="m1190.6 23.4h25.3v14h-25.3z" transform="matrix(1 0 0 -1 0 351.9)"/></clipPath><clipPath id="K"><path d="m1242.8 23.4h25.2v14h-25.2z" transform="matrix(1 0 0 -1 0 351.9)"/></clipPath><clipPath id="L"><path d="m109 40h21v43h-21z" transform="matrix(1 0 0 -1 0 351.9)"/></clipPath><clipPath id="M"><path d="m0 0h21v43h-21z" transform="translate(109 268.9)"/></clipPath><clipPath id="N"><path d="m0 0h21v43h-21z" transform="translate(109 268.9)"/></clipPath><clipPath id="O"><path d="m161 40h21v57h-21z" transform="matrix(1 0 0 -1 0 351.9)"/></clipPath><clipPath id="P"><path d="m0 0h21v57h-21z" transform="translate(161 254.9)"/></clipPath><clipPath id="Q"><path d="m0 0h21v57h-21z" transform="translate(161 254.9)"/></clipPath><clipPath id="R"><path d="m213 40h21v48h-21z" transform="matrix(1 0 0 -1 0 351.9)"/></clipPath><clipPath id="S"><path d="m0 0h21v48h-21z" transform="translate(213 263.9)"/></clipPath><clipPath id="T"><path d="m0 0h21v48h-21z" transform="translate(213 263.9)"/></clipPath><clipPath id="U"><path d="m265 40h21v48h-21z" transform="matrix(1 0 0 -1 0 351.9)"/></clipPath><clipPath id="V"><path d="m0 0h21v48h-21z" transform="translate(265 263.9)"/></clipPath><clipPath id="W"><path d="m0 0h21v48h-21z" transform="translate(265 263.9)"/></clipPath><clipPath id="X"><path d="m317 40h21v32h-21z" transform="matrix(1 0 0 -1 0 351.9)"/></clipPath><clipPath id="Y"><path d="m0 0h21v32h-21z" transform="translate(317 279.9)"/></clipPath><clipPath id="Z"><path d="m0 0h21v32h-21z" transform="translate(317 279.9)"/></clipPath><clipPath id="aa"><path d="m370 40h20v26h-20z" transform="matrix(1 0 0 -1 0 351.9)"/></clipPath><clipPath id="ab"><path d="m0 0h20v26h-20z" transform="translate(370 285.9)"/></clipPath><clipPath id="ac"><path d="m0 0h20v26h-20z" transform="translate(370 285.9)"/></clipPath><clipPath id="ad"><path d="m422 40h21v27h-21z" transform="matrix(1 0 0 -1 0 351.9)"/></clipPath><clipPath id="ae"><path d="m0 0h21v27h-21z" transform="translate(422 284.9)"/></clipPath><clipPath id="af"><path d="m0 0h21v27h-21z" transform="translate(422 284.9)"/></clipPath><clipPath id="ag"><path d="m474 40h21v43h-21z" transform="matrix(1 0 0 -1 0 351.9)"/></clipPath><clipPath id="ah"><path d="m0 0h21v43h-21z" transform="translate(474 268.9)"/></clipPath><clipPath id="ai"><path d="m0 0h21v43h-21z" transform="translate(474 268.9)"/></clipPath><clipPath id="aj"><path d="m526 40h21v62h-21z" transform="matrix(1 0 0 -1 0 351.9)"/></clipPath><clipPath id="ak"><path d="m0 0h21v62h-21z" transform="translate(526 249.9)"/></clipPath><clipPath id="al"><path d="m0 0h21v62h-21z" transform="translate(526 249.9)"/></clipPath><clipPath id="am"><path d="m578 40h21v80h-21z" transform="matrix(1 0 0 -1 0 351.9)"/></clipPath><clipPath id="an"><path d="m0 0h21v80h-21z" transform="translate(578 231.9)"/></clipPath><clipPath id="ao"><path d="m0 0h21v80h-21z" transform="translate(578 231.9)"/></clipPath><clipPath id="ap"><path d="m630 40h21v80h-21z" transform="matrix(1 0 0 -1 0 351.9)"/></clipPath><clipPath id="aq"><path d="m0 0h21v80h-21z" transform="translate(630 231.9)"/></clipPath><clipPath id="ar"><path d="m0 0h21v80h-21z" transform="translate(630 231.9)"/></clipPath><clipPath id="as"><path d="m683 40h20v80h-20z" transform="matrix(1 0 0 -1 0 351.9)"/></clipPath><clipPath id="at"><path d="m0 0h20v80h-20z" transform="translate(683 231.9)"/></clipPath><clipPath id="au"><path d="m0 0h20v80h-20z" transform="translate(683 231.9)"/></clipPath><clipPath id="av"><path d="m735 40h21v76h-21z" transform="matrix(1 0 0 -1 0 351.9)"/></clipPath><clipPath id="aw"><path d="m0 0h21v76h-21z" transform="translate(735 235.9)"/></clipPath><clipPath id="ax"><path d="m0 0h21v76h-21z" transform="translate(735 235.9)"/></clipPath><clipPath id="ay"><path d="m787 40h21v70h-21z" transform="matrix(1 0 0 -1 0 351.9)"/></clipPath><clipPath id="az"><path d="m0 0h21v70h-21z" transform="translate(787 241.9)"/></clipPath><clipPath id="aA"><path d="m0 0h21v70h-21z" transform="translate(787 241.9)"/></clipPath><clipPath id="aB"><path d="m839 40h21v73h-21z" transform="matrix(1 0 0 -1 0 351.9)"/></clipPath><clipPath id="aC"><path d="m0 0h21v73h-21z" transform="translate(839 238.9)"/></clipPath><clipPath id="aD"><path d="m0 0h21v73h-21z" transform="translate(839 238.9)"/></clipPath><clipPath id="aE"><path d="m891 40h21v82h-21z" transform="matrix(1 0 0 -1 0 351.9)"/></clipPath><clipPath id="aF"><path d="m0 0h21v82h-21z" transform="translate(891 229.9)"/></clipPath><clipPath id="aG"><path d="m0 0h21v82h-21z" transform="translate(891 229.9)"/></clipPath><clipPath id="aH"><path d="m943 40h21v80h-21z" transform="matrix(1 0 0 -1 0 351.9)"/></clipPath><clipPath id="aI"><path d="m0 0h21v80h-21z" transform="translate(943 231.9)"/></clipPath><clipPath id="aJ"><path d="m0 0h21v80h-21z" transform="translate(943 231.9)"/></clipPath><clipPath id="aK"><path d="m996 40h20v84h-20z" transform="matrix(1 0 0 -1 0 351.9)"/></clipPath><clipPath id="aL"><path d="m0 0h20v84h-20z" transform="translate(996 227.9)"/></clipPath><clipPath id="aM"><path d="m0 0h20v84h-20z" transform="translate(996 227.9)"/></clipPath><clipPath id="aN"><path d="m1048 40h21v87h-21z" transform="matrix(1 0 0 -1 0 351.9)"/></clipPath><clipPath id="aO"><path d="m0 0h21v87h-21z" transform="translate(1048 224.9)"/></clipPath><clipPath id="aP"><path d="m0 0h21v87h-21z" transform="translate(1048 224.9)"/></clipPath><clipPath id="aQ"><path d="m1100 40h21v56h-21z" transform="matrix(1 0 0 -1 0 351.9)"/></clipPath><clipPath id="aR"><path d="m0 0h21v56h-21z" transform="translate(1100 255.9)"/></clipPath><clipPath id="aS"><path d="m0 0h21v56h-21z" transform="translate(1100 255.9)"/></clipPath><clipPath id="aT"><path d="m1152 40h21v31h-21z" transform="matrix(1 0 0 -1 0 351.9)"/></clipPath><clipPath id="aU"><path d="m0 0h21v31h-21z" transform="translate(1152 280.9)"/></clipPath><clipPath id="aV"><path d="m0 0h21v31h-21z" transform="translate(1152 280.9)"/></clipPath><clipPath id="aW"><path d="m1204 40h21v22h-21z" transform="matrix(1 0 0 -1 0 351.9)"/></clipPath><clipPath id="aX"><path d="m0 0h21v22h-21z" transform="translate(1204 289.9)"/></clipPath><clipPath id="aY"><path d="m0 0h21v22h-21z" transform="translate(1204 289.9)"/></clipPath><clipPath id="aZ"><path d="m1256 40h21v40h-21z" transform="matrix(1 0 0 -1 0 351.9)"/></clipPath><clipPath id="a0"><path d="m0 0h21v40h-21z" transform="translate(1256 271.9)"/></clipPath><clipPath id="a1"><path d="m0 0h21v40h-21z" transform="translate(1256 271.9)"/></clipPath><clipPath id="a2"><path d="m86 40h21v94h-21z" transform="matrix(1 0 0 -1 0 351.9)"/></clipPath><clipPath id="a3"><path d="m0 0h21v94h-21z" transform="translate(86 217.9)"/></clipPath><clipPath id="a4"><path d="m0 0h21v94h-21z" transform="translate(86 217.9)"/></clipPath><clipPath id="a5"><path d="m138 40h21v134h-21z" transform="matrix(1 0 0 -1 0 351.9)"/></clipPath><clipPath id="a6"><path d="m0 0h21v134h-21z" transform="translate(138 177.9)"/></clipPath><clipPath id="a7"><path d="m0 0h21v134h-21z" transform="translate(138 177.9)"/></clipPath><clipPath id="a8"><path d="m190 40h21v142h-21z" transform="matrix(1 0 0 -1 0 351.9)"/></clipPath><clipPath id="a9"><path d="m0 0h21v142h-21z" transform="translate(190 169.9)"/></clipPath><clipPath id="ba"><path d="m0 0h21v142h-21z" transform="translate(190 169.9)"/></clipPath><clipPath id="bb"><path d="m242 40h21v136h-21z" transform="matrix(1 0 0 -1 0 351.9)"/></clipPath><clipPath id="bc"><path d="m0 0h21v136h-21z" transform="translate(242 175.9)"/></clipPath><clipPath id="bd"><path d="m0 0h21v136h-21z" transform="translate(242 175.9)"/></clipPath><clipPath id="be"><path d="m294 40h21v98h-21z" transform="matrix(1 0 0 -1 0 351.9)"/></clipPath><clipPath id="bf"><path d="m0 0h21v98h-21z" transform="translate(294 213.9)"/></clipPath><clipPath id="bg"><path d="m0 0h21v98h-21z" transform="translate(294 213.9)"/></clipPath><clipPath id="bh"><path d="m347 40h20v83h-20z" transform="matrix(1 0 0 -1 0 351.9)"/></clipPath><clipPath id="bi"><path d="m0 0h20v83h-20z" transform="translate(347 228.9)"/></clipPath><clipPath id="bj"><path d="m0 0h20v83h-20z" transform="translate(347 228.9)"/></clipPath><clipPath id="bk"><path d="m399 40h21v60h-21z" transform="matrix(1 0 0 -1 0 351.9)"/></clipPath><clipPath id="bl"><path d="m0 0h21v60h-21z" transform="translate(399 251.9)"/></clipPath><clipPath id="bm"><path d="m0 0h21v60h-21z" transform="translate(399 251.9)"/></clipPath><clipPath id="bn"><path d="m451 40h21v97h-21z" transform="matrix(1 0 0 -1 0 351.9)"/></clipPath><clipPath id="bo"><path d="m0 0h21v97h-21z" transform="translate(451 214.9)"/></clipPath><clipPath id="bp"><path d="m0 0h21v97h-21z" transform="translate(451 214.9)"/></clipPath><clipPath id="bq"><path d="m503 40h21v140h-21z" transform="matrix(1 0 0 -1 0 351.9)"/></clipPath><clipPath id="br"><path d="m0 0h21v140h-21z" transform="translate(503 171.9)"/></clipPath><clipPath id="bs"><path d="m0 0h21v140h-21z" transform="translate(503 171.9)"/></clipPath><clipPath id="bt"><path d="m555 40h21v166h-21z" transform="matrix(1 0 0 -1 0 351.9)"/></clipPath><clipPath id="bu"><path d="m0 0h21v166h-21z" transform="translate(555 145.9)"/></clipPath><clipPath id="bv"><path d="m0 0h21v166h-21z" transform="translate(555 145.9)"/></clipPath><clipPath id="bw"><path d="m607 40h21v179h-21z" transform="matrix(1 0 0 -1 0 351.9)"/></clipPath><clipPath id="bx"><path d="m0 0h21v179h-21z" transform="translate(607 132.9)"/></clipPath><clipPath id="by"><path d="m0 0h21v179h-21z" transform="translate(607 132.9)"/></clipPath><clipPath id="bz"><path d="m660 40h20v176h-20z" transform="matrix(1 0 0 -1 0 351.9)"/></clipPath><clipPath id="bA"><path d="m0 0h20v176h-20z" transform="translate(660 135.9)"/></clipPath><clipPath id="bB"><path d="m0 0h20v176h-20z" transform="translate(660 135.9)"/></clipPath><clipPath id="bC"><path d="m712 40h21v173h-21z" transform="matrix(1 0 0 -1 0 351.9)"/></clipPath><clipPath id="bD"><path d="m0 0h21v173h-21z" transform="translate(712 138.9)"/></clipPath><clipPath id="bE"><path d="m0 0h21v173h-21z" transform="translate(712 138.9)"/></clipPath><clipPath id="bF"><path d="m764 40h21v171h-21z" transform="matrix(1 0 0 -1 0 351.9)"/></clipPath><clipPath id="bG"><path d="m0 0h21v171h-21z" transform="translate(764 140.9)"/></clipPath><clipPath id="bH"><path d="m0 0h21v171h-21z" transform="translate(764 140.9)"/></clipPath><clipPath id="bI"><path d="m816 40h21v173h-21z" transform="matrix(1 0 0 -1 0 351.9)"/></clipPath><clipPath id="bJ"><path d="m0 0h21v173h-21z" transform="translate(816 138.9)"/></clipPath><clipPath id="bK"><path d="m0 0h21v173h-21z" transform="translate(816 138.9)"/></clipPath><clipPath id="bL"><path d="m868 40h21v176h-21z" transform="matrix(1 0 0 -1 0 351.9)"/></clipPath><clipPath id="bM"><path d="m0 0h21v176h-21z" transform="translate(868 135.9)"/></clipPath><clipPath id="bN"><path d="m0 0h21v176h-21z" transform="translate(868 135.9)"/></clipPath><clipPath id="bO"><path d="m920 40h21v178h-21z" transform="matrix(1 0 0 -1 0 351.9)"/></clipPath><clipPath id="bP"><path d="m0 0h21v178h-21z" transform="translate(920 133.9)"/></clipPath><clipPath id="bQ"><path d="m0 0h21v178h-21z" transform="translate(920 133.9)"/></clipPath><clipPath id="bR"><path d="m973 40h21v177h-21z" transform="matrix(1 0 0 -1 0 351.9)"/></clipPath><clipPath id="bS"><path d="m0 0h21v177h-21z" transform="translate(973 134.9)"/></clipPath><clipPath id="bT"><path d="m0 0h21v177h-21z" transform="translate(973 134.9)"/></clipPath><clipPath id="bU"><path d="m1025 40h21v180h-21z" transform="matrix(1 0 0 -1 0 351.9)"/></clipPath><clipPath id="bV"><path d="m0 0h21v180h-21z" transform="translate(1025 131.9)"/></clipPath><clipPath id="bW"><path d="m0 0h21v180h-21z" transform="translate(1025 131.9)"/></clipPath><clipPath id="bX"><path d="m1077 40h21v149h-21z" transform="matrix(1 0 0 -1 0 351.9)"/></clipPath><clipPath id="bY"><path d="m0 0h21v149h-21z" transform="translate(1077 162.9)"/></clipPath><clipPath id="bZ"><path d="m0 0h21v149h-21z" transform="translate(1077 162.9)"/></clipPath><clipPath id="b0"><path d="m1129 40h21v122h-21z" transform="matrix(1 0 0 -1 0 351.9)"/></clipPath><clipPath id="b1"><path d="m0 0h21v122h-21z" transform="translate(1129 189.9)"/></clipPath><clipPath id="b2"><path d="m0 0h21v122h-21z" transform="translate(1129 189.9)"/></clipPath><clipPath id="b3"><path d="m1181 40h21v94h-21z" transform="matrix(1 0 0 -1 0 351.9)"/></clipPath><clipPath id="b4"><path d="m0 0h21v94h-21z" transform="translate(1181 217.9)"/></clipPath><clipPath id="b5"><path d="m0 0h21v94h-21z" transform="translate(1181 217.9)"/></clipPath><clipPath id="b6"><path d="m1234 40h20v120h-20z" transform="matrix(1 0 0 -1 0 351.9)"/></clipPath><clipPath id="b7"><path d="m0 0h20v120h-20z" transform="translate(1234 191.9)"/></clipPath><clipPath id="b8"><path d="m0 0h20v120h-20z" transform="translate(1234 191.9)"/></clipPath><clipPath id="b9"><path d="m0 0h1383v351.9h-1383z" transform="matrix(1 0 0 -1 0 351.9)"/></clipPath><clipPath id="ca"><path d="m99.6 131.5h1163.8v157.8h-1163.8z" transform="matrix(1 0 0 -1 0 351.9)"/></clipPath><clipPath id="cb"><path d="m79.1 131.5h1204.8v157.8h-1204.8z" transform="matrix(1 0 0 -1 0 351.9)"/></clipPath><clipPath id="cc"><path d="m0 0h1383v351.9h-1383z" transform="matrix(1 0 0 -1 0 351.9)"/></clipPath><clipPath id="cd"><path d="m606 4.8h11v8.4h-11z" transform="matrix(1 0 0 -1 0 351.9)"/></clipPath><clipPath id="ce"><path d="m606 3h11v12h-11z" transform="matrix(1 0 0 -1 0 351.9)"/></clipPath><g clip-path="url(#a)" fill="none" stroke="#b8b8b8" stroke-width=".3"><path d="m82 252.4h1200m-1200-60h1200m-1200-60h1200m-1200-60h1200m-1200-60h1200"/></g><g clip-path="url(#b)"><text font-family="Helvetica" font-size="10" transform="translate(1297.6 315.7)"><tspan x="0 5.6" y="0">0%</tspan></text></g><g clip-path="url(#c)"><text font-family="Helvetica" font-size="10" transform="translate(1297.6 255.7)"><tspan x="0 5.6" y="0">2%</tspan></text></g><g clip-path="url(#d)"><text font-family="Helvetica" font-size="10" transform="translate(1297.6 195.7)"><tspan x="0 5.6" y="0">4%</tspan></text></g><g clip-path="url(#e)"><text font-family="Helvetica" font-size="10" transform="translate(1297.6 135.7)"><tspan x="0 5.6" y="0">6%</tspan></text></g><g clip-path="url(#f)"><text font-family="Helvetica" font-size="10" transform="translate(1297.6 75.7)"><tspan x="0 5.6" y="0">8%</tspan></text></g><g clip-path="url(#g)"><text font-family="Helvetica" font-size="10" transform="translate(1292 15.7)"><tspan x="0 5.6 11.1" y="0">10%</tspan></text></g><g font-family="Helvetica" font-size="10"><g clip-path="url(#h)"><text transform="translate(33.2 315.7)"><tspan x="0 5.6 8.3" y="0">0,0</tspan></text><text transform="translate(33.2 315.7)"><tspan x="16.7 23.9 30.6" y="0">USD</tspan></text></g><g clip-path="url(#i)"><text transform="translate(33.2 255.7)"><tspan x="0 5.6 8.3" y="0">0,6</tspan></text><text transform="translate(33.2 255.7)"><tspan x="16.7 23.9 30.6" y="0">USD</tspan></text></g><g clip-path="url(#j)"><text transform="translate(33.2 195.7)"><tspan x="0 5.6 8.3" y="0">1,2</tspan></text><text transform="translate(33.2 195.7)"><tspan x="16.7 23.9 30.6" y="0">USD</tspan></text></g><g clip-path="url(#k)"><text transform="translate(33.2 135.7)"><tspan x="0 5.6 8.3" y="0">1,8</tspan></text><text transform="translate(33.2 135.7)"><tspan x="16.7 23.9 30.6" y="0">USD</tspan></text></g><g clip-path="url(#l)"><text transform="translate(33.2 75.7)"><tspan x="0 5.6 8.3" y="0">2,4</tspan></text><text transform="translate(33.2 75.7)"><tspan x="16.7 23.9 30.6" y="0">USD</tspan></text></g><g clip-path="url(#m)"><text transform="translate(33.2 15.7)"><tspan x="0 5.6 8.3" y="0">3,0</tspan></text><text transform="translate(33.2 15.7)"><tspan x="16.7 23.9 30.6" y="0">USD</tspan></text></g></g><g clip-path="url(#n)"><path d="m81.5 312.4h1200" fill="none" stroke="#000" stroke-linecap="square"/></g><g clip-path="url(#o)"><text font-family="Helvetica" font-size="10" transform="translate(96.5 325.2)"><tspan x="0 5.6 11.1 16.7" y="0">2000</tspan></text></g><g clip-path="url(#p)"><text font-family="Helvetica" font-size="10" transform="translate(148.6 325.2)"><tspan x="0 5.6 11.1 16.7" y="0">2001</tspan></text></g><g clip-path="url(#q)"><text font-family="Helvetica" font-size="10" transform="translate(200.8 325.2)"><tspan x="0 5.6 11.1 16.7" y="0">2002</tspan></text></g><g clip-path="url(#r)"><text font-family="Helvetica" font-size="10" transform="translate(253 325.2)"><tspan x="0 5.6 11.1 16.7" y="0">2003</tspan></text></g><g clip-path="url(#s)"><text font-family="Helvetica" font-size="10" transform="translate(305.2 325.2)"><tspan x="0 5.6 11.1 16.7" y="0">2004</tspan></text></g><g clip-path="url(#t)"><text font-family="Helvetica" font-size="10" transform="translate(357.3 325.2)"><tspan x="0 5.6 11.1 16.7" y="0">2005</tspan></text></g><g clip-path="url(#u)"><text font-family="Helvetica" font-size="10" transform="translate(409.5 325.2)"><tspan x="0 5.6 11.1 16.7" y="0">2006</tspan></text></g><g clip-path="url(#v)"><text font-family="Helvetica" font-size="10" transform="translate(461.7 325.2)"><tspan x="0 5.6 11.1 16.7" y="0">2007</tspan></text></g><g clip-path="url(#w)"><text font-family="Helvetica" font-size="10" transform="translate(513.9 325.2)"><tspan x="0 5.6 11.1 16.7" y="0">2008</tspan></text></g><g clip-path="url(#x)"><text font-family="Helvetica" font-size="10" transform="translate(566 325.2)"><tspan x="0 5.6 11.1 16.7" y="0">2009</tspan></text></g><g clip-path="url(#y)"><text font-family="Helvetica" font-size="10" transform="translate(618.2 325.2)"><tspan x="0 5.6 11.1 16.7" y="0">2010</tspan></text></g><g clip-path="url(#z)"><text font-family="Helvetica" font-size="10" transform="translate(670.7 325.2)"><tspan x="0 5.6 11.1 15.9" y="0">2011</tspan></text></g><g clip-path="url(#A)"><text font-family="Helvetica" font-size="10" transform="translate(722.5 325.2)"><tspan x="0 5.6 11.1 16.7" y="0">2012</tspan></text></g><g clip-path="url(#B)"><text font-family="Helvetica" font-size="10" transform="translate(774.7 325.2)"><tspan x="0 5.6 11.1 16.7" y="0">2013</tspan></text></g><g clip-path="url(#C)"><text font-family="Helvetica" font-size="10" transform="translate(826.9 325.2)"><tspan x="0 5.6 11.1 16.7" y="0">2014</tspan></text></g><g clip-path="url(#D)"><text font-family="Helvetica" font-size="10" transform="translate(879 325.2)"><tspan x="0 5.6 11.1 16.7" y="0">2015</tspan></text></g><g clip-path="url(#E)"><text font-family="Helvetica" font-size="10" transform="translate(931.2 325.2)"><tspan x="0 5.6 11.1 16.7" y="0">2016</tspan></text></g><g clip-path="url(#F)"><text font-family="Helvetica" font-size="10" transform="translate(983.4 325.2)"><tspan x="0 5.6 11.1 16.7" y="0">2017</tspan></text></g><g clip-path="url(#G)"><text font-family="Helvetica" font-size="10" transform="translate(1035.6 325.2)"><tspan x="0 5.6 11.1 16.7" y="0">2018</tspan></text></g><g clip-path="url(#H)"><text font-family="Helvetica" font-size="10" transform="translate(1087.8 325.2)"><tspan x="0 5.6 11.1 16.7" y="0">2019</tspan></text></g><g clip-path="url(#I)"><text font-family="Helvetica" font-size="10" transform="translate(1140 325.2)"><tspan x="0 5.6 11.1 16.7" y="0">2020</tspan></text></g><g clip-path="url(#J)"><text font-family="Helvetica" font-size="10" transform="translate(1192.1 325.2)"><tspan x="0 5.6 11.1 16.7" y="0">2021</tspan></text></g><g clip-path="url(#K)"><text font-family="Helvetica" font-size="10" transform="translate(1244.3 325.2)"><tspan x="0 5.6 11.1 16.7" y="0">2022</tspan></text></g><g clip-path="url(#L)"><g clip-path="url(#M)"><g clip-path="url(#N)"><path d="m109 268.9h21v43h-21z" fill="#dcba3e"/></g></g></g><g clip-path="url(#O)"><g clip-path="url(#P)"><g clip-path="url(#Q)"><path d="m161 254.9h21v57h-21z" fill="#dcba3e"/></g></g></g><g clip-path="url(#R)"><g clip-path="url(#S)"><g clip-path="url(#T)"><path d="m213 263.9h21v48h-21z" fill="#dcba3e"/></g></g></g><g clip-path="url(#U)"><g clip-path="url(#V)"><g clip-path="url(#W)"><path d="m265 263.9h21v48h-21z" fill="#dcba3e"/></g></g></g><g clip-path="url(#X)"><g clip-path="url(#Y)"><g clip-path="url(#Z)"><path d="m317 279.9h21v32h-21z" fill="#dcba3e"/></g></g></g><g clip-path="url(#aa)"><g clip-path="url(#ab)"><g clip-path="url(#ac)"><path d="m370 285.9h20v26h-20z" fill="#dcba3e"/></g></g></g><g clip-path="url(#ad)"><g clip-path="url(#ae)"><g clip-path="url(#af)"><path d="m422 284.9h21v27h-21z" fill="#dcba3e"/></g></g></g><g clip-path="url(#ag)"><g clip-path="url(#ah)"><g clip-path="url(#ai)"><path d="m474 268.9h21v43h-21z" fill="#dcba3e"/></g></g></g><g clip-path="url(#aj)"><g clip-path="url(#ak)"><g clip-path="url(#al)"><path d="m526 249.9h21v62h-21z" fill="#dcba3e"/></g></g></g><g clip-path="url(#am)"><g clip-path="url(#an)"><g clip-path="url(#ao)"><path d="m578 231.9h21v80h-21z" fill="#dcba3e"/></g></g></g><g clip-path="url(#ap)"><g clip-path="url(#aq)"><g clip-path="url(#ar)"><path d="m630 231.9h21v80h-21z" fill="#dcba3e"/></g></g></g><g clip-path="url(#as)"><g clip-path="url(#at)"><g clip-path="url(#au)"><path d="m683 231.9h20v80h-20z" fill="#dcba3e"/></g></g></g><g clip-path="url(#av)"><g clip-path="url(#aw)"><g clip-path="url(#ax)"><path d="m735 235.9h21v76h-21z" fill="#dcba3e"/></g></g></g><g clip-path="url(#ay)"><g clip-path="url(#az)"><g clip-path="url(#aA)"><path d="m787 241.9h21v70h-21z" fill="#dcba3e"/></g></g></g><g clip-path="url(#aB)"><g clip-path="url(#aC)"><g clip-path="url(#aD)"><path d="m839 238.9h21v73h-21z" fill="#dcba3e"/></g></g></g><g clip-path="url(#aE)"><g clip-path="url(#aF)"><g clip-path="url(#aG)"><path d="m891 229.9h21v82h-21z" fill="#dcba3e"/></g></g></g><g clip-path="url(#aH)"><g clip-path="url(#aI)"><g clip-path="url(#aJ)"><path d="m943 231.9h21v80h-21z" fill="#dcba3e"/></g></g></g><g clip-path="url(#aK)"><g clip-path="url(#aL)"><g clip-path="url(#aM)"><path d="m996 227.9h20v84h-20z" fill="#dcba3e"/></g></g></g><g clip-path="url(#aN)"><g clip-path="url(#aO)"><g clip-path="url(#aP)"><path d="m1048 224.9h21v87h-21z" fill="#dcba3e"/></g></g></g><g clip-path="url(#aQ)"><g clip-path="url(#aR)"><g clip-path="url(#aS)"><path d="m1100 255.9h21v56h-21z" fill="#dcba3e"/></g></g></g><g clip-path="url(#aT)"><g clip-path="url(#aU)"><g clip-path="url(#aV)"><path d="m1152 280.9h21v31h-21z" fill="#dcba3e"/></g></g></g><g clip-path="url(#aW)"><g clip-path="url(#aX)"><g clip-path="url(#aY)"><path d="m1204 289.9h21v22h-21z" fill="#dcba3e"/></g></g></g><g clip-path="url(#aZ)"><g clip-path="url(#a0)"><g clip-path="url(#a1)"><path d="m1256 271.9h21v40h-21z" fill="#dcba3e"/></g></g></g><g clip-path="url(#a2)"><g clip-path="url(#a3)"><g clip-path="url(#a4)"><path d="m86 217.9h21v94h-21z" fill="#035494"/></g></g></g><g clip-path="url(#a5)"><g clip-path="url(#a6)"><g clip-path="url(#a7)"><path d="m138 177.9h21v134h-21z" fill="#035494"/></g></g></g><g clip-path="url(#a8)"><g clip-path="url(#a9)"><g clip-path="url(#ba)"><path d="m190 169.9h21v142h-21z" fill="#035494"/></g></g></g><g clip-path="url(#bb)"><g clip-path="url(#bc)"><g clip-path="url(#bd)"><path d="m242 175.9h21v136h-21z" fill="#035494"/></g></g></g><g clip-path="url(#be)"><g clip-path="url(#bf)"><g clip-path="url(#bg)"><path d="m294 213.9h21v98h-21z" fill="#035494"/></g></g></g><g clip-path="url(#bh)"><g clip-path="url(#bi)"><g clip-path="url(#bj)"><path d="m347 228.9h20v83h-20z" fill="#035494"/></g></g></g><g clip-path="url(#bk)"><g clip-path="url(#bl)"><g clip-path="url(#bm)"><path d="m399 251.9h21v60h-21z" fill="#035494"/></g></g></g><g clip-path="url(#bn)"><g clip-path="url(#bo)"><g clip-path="url(#bp)"><path d="m451 214.9h21v97h-21z" fill="#035494"/></g></g></g><g clip-path="url(#bq)"><g clip-path="url(#br)"><g clip-path="url(#bs)"><path d="m503 171.9h21v140h-21z" fill="#035494"/></g></g></g><g clip-path="url(#bt)"><g clip-path="url(#bu)"><g clip-path="url(#bv)"><path d="m555 145.9h21v166h-21z" fill="#035494"/></g></g></g><g clip-path="url(#bw)"><g clip-path="url(#bx)"><g clip-path="url(#by)"><path d="m607 132.9h21v179h-21z" fill="#035494"/></g></g></g><g clip-path="url(#bz)"><g clip-path="url(#bA)"><g clip-path="url(#bB)"><path d="m660 135.9h20v176h-20z" fill="#035494"/></g></g></g><g clip-path="url(#bC)"><g clip-path="url(#bD)"><g clip-path="url(#bE)"><path d="m712 138.9h21v173h-21z" fill="#035494"/></g></g></g><g clip-path="url(#bF)"><g clip-path="url(#bG)"><g clip-path="url(#bH)"><path d="m764 140.9h21v171h-21z" fill="#035494"/></g></g></g><g clip-path="url(#bI)"><g clip-path="url(#bJ)"><g clip-path="url(#bK)"><path d="m816 138.9h21v173h-21z" fill="#035494"/></g></g></g><g clip-path="url(#bL)"><g clip-path="url(#bM)"><g clip-path="url(#bN)"><path d="m868 135.9h21v176h-21z" fill="#035494"/></g></g></g><g clip-path="url(#bO)"><g clip-path="url(#bP)"><g clip-path="url(#bQ)"><path d="m920 133.9h21v178h-21z" fill="#035494"/></g></g></g><g clip-path="url(#bR)"><g clip-path="url(#bS)"><g clip-path="url(#bT)"><path d="m973 134.9h21v177h-21z" fill="#035494"/></g></g></g><g clip-path="url(#bU)"><g clip-path="url(#bV)"><g clip-path="url(#bW)"><path d="m1025 131.9h21v180h-21z" fill="#035494"/></g></g></g><g clip-path="url(#bX)"><g clip-path="url(#bY)"><g clip-path="url(#bZ)"><path d="m1077 162.9h21v149h-21z" fill="#035494"/></g></g></g><g clip-path="url(#b0)"><g clip-path="url(#b1)"><g clip-path="url(#b2)"><path d="m1129 189.9h21v122h-21z" fill="#035494"/></g></g></g><g clip-path="url(#b3)"><g clip-path="url(#b4)"><g clip-path="url(#b5)"><path d="m1181 217.9h21v94h-21z" fill="#035494"/></g></g></g><g clip-path="url(#b6)"><g clip-path="url(#b7)"><g clip-path="url(#b8)"><path d="m1234 191.9h20v120h-20z" fill="#035494"/></g></g></g><g clip-path="url(#b9)"><g clip-path="url(#ca)"><g clip-path="url(#cb)"><path d="m107.6 218 52.2-1 52.1-4 52.2-2 52.2-9 52.2-11 52.1-3 52.2-5 52.2-14 52.1-3 52.2-10 52.2-14 52.2-9 52.1-11 52.2-5 52.2-5 52.2-5 52.1-2 52.2-9 52.2-5 52.2-5 52.1 1 52.2-22" fill="none" stroke="#70be41" stroke-width="4"/></g></g><path d="m230 336.9h12v12h-12z" fill="#035494"/><text font-family="Helvetica" font-size="15" transform="translate(251 348.5)"><tspan x="0 13.6 22 25.3 32.8 36.1 43.6 47 51.1 59.5 62.8 67 75.3 78.6 82.8 90.3 98.6 111.1 119.5" y="0">Waikiki hitel kamat</tspan></text></g><g clip-path="url(#cc)"><g clip-path="url(#cd)"><g clip-path="url(#ce)"><path d="m606 342.9h11" fill="none" stroke="#70be41" stroke-width="2.1"/></g></g><text font-family="Helvetica" font-size="15" transform="translate(626.1 348.5)"><tspan x="0 14.2 25 35.8 40 44.2 48.3 59.2 69.2 80 84.2 92.5 97.5 101.7 110 113.3 120.8 129.2" y="0">WUD / USD árfolyam</tspan></text><path d="m999 336.9h11v12h-11z" fill="#dcba3e"/><text font-family="Helvetica" font-size="15" transform="translate(1019.3 348.5)"><tspan x="0 13.6 22 25.3 32.8 36.1 43.6 47 51.1 59.5 67.8 72 80.3 84.5 87.8 92 99.5 107.8 120.3 128.7" y="0">Waikiki betéti kamat</tspan></text></g></svg>