<svg viewBox="0 0 1390.3 351.9" xmlns="http://www.w3.org/2000/svg" xmlns:xlink="http://www.w3.org/1999/xlink"><clipPath id="a"><path d="m0 0h1390.3v351.9h-1390.3z" transform="matrix(1 0 0 -1 0 351.9)"/></clipPath><clipPath id="b"><path d="m1303.4 32.9h67.4v14h-67.4z" transform="matrix(1 0 0 -1 0 351.9)"/></clipPath><clipPath id="c"><path d="m1303.4 92.9h67.4v14h-67.4z" transform="matrix(1 0 0 -1 0 351.9)"/></clipPath><clipPath id="d"><path d="m1303.4 152.9h67.4v14h-67.4z" transform="matrix(1 0 0 -1 0 351.9)"/></clipPath><clipPath id="e"><path d="m1303.4 212.9h67.4v14h-67.4z" transform="matrix(1 0 0 -1 0 351.9)"/></clipPath><clipPath id="f"><path d="m1303.4 272.9h67.4v14h-67.4z" transform="matrix(1 0 0 -1 0 351.9)"/></clipPath><clipPath id="g"><path d="m1297.8 332.9h73v14h-73z" transform="matrix(1 0 0 -1 0 351.9)"/></clipPath><clipPath id="h"><path d="m10.1 32.9h69.7v14h-69.8z" transform="matrix(1 0 0 -1 0 351.9)"/></clipPath><clipPath id="i"><path d="m0 82.9h79.8v14h-79.8z" transform="matrix(1 0 0 -1 0 351.9)"/></clipPath><clipPath id="j"><path d="m0 132.9h79.8v14h-79.8z" transform="matrix(1 0 0 -1 0 351.9)"/></clipPath><clipPath id="k"><path d="m0 182.9h79.8v14h-79.8z" transform="matrix(1 0 0 -1 0 351.9)"/></clipPath><clipPath id="l"><path d="m0 232.9h79.8v14h-79.8z" transform="matrix(1 0 0 -1 0 351.9)"/></clipPath><clipPath id="m"><path d="m0 282.9h79.8v14h-79.8z" transform="matrix(1 0 0 -1 0 351.9)"/></clipPath><clipPath id="n"><path d="m0 332.9h79.8v14h-79.8z" transform="matrix(1 0 0 -1 0 351.9)"/></clipPath><clipPath id="o"><path d="m0 0h1390.3v351.9h-1390.3z" transform="matrix(1 0 0 -1 0 351.9)"/></clipPath><clipPath id="p"><path d="m102.3 23.4h25.2v14h-25.2z" transform="matrix(1 0 0 -1 0 351.9)"/></clipPath><clipPath id="q"><path d="m154.4 23.4h25.3v14h-25.3z" transform="matrix(1 0 0 -1 0 351.9)"/></clipPath><clipPath id="r"><path d="m206.6 23.4h25.3v14h-25.3z" transform="matrix(1 0 0 -1 0 351.9)"/></clipPath><clipPath id="s"><path d="m258.8 23.4h25.2v14h-25.2z" transform="matrix(1 0 0 -1 0 351.9)"/></clipPath><clipPath id="t"><path d="m311 23.4h25.2v14h-25.2z" transform="matrix(1 0 0 -1 0 351.9)"/></clipPath><clipPath id="u"><path d="m363.1 23.4h25.3v14h-25.4z" transform="matrix(1 0 0 -1 0 351.9)"/></clipPath><clipPath id="v"><path d="m415.3 23.4h25.2v14h-25.2z" transform="matrix(1 0 0 -1 0 351.9)"/></clipPath><clipPath id="w"><path d="m467.5 23.4h25.2v14h-25.2z" transform="matrix(1 0 0 -1 0 351.9)"/></clipPath><clipPath id="x"><path d="m519.6 23.4h25.4v14h-25.3z" transform="matrix(1 0 0 -1 0 351.9)"/></clipPath><clipPath id="y"><path d="m571.8 23.4h25.3v14h-25.3z" transform="matrix(1 0 0 -1 0 351.9)"/></clipPath><clipPath id="z"><path d="m624 23.4h25.2v14h-25.2z" transform="matrix(1 0 0 -1 0 351.9)"/></clipPath><clipPath id="A"><path d="m676.5 23.4h24.5v14h-24.5z" transform="matrix(1 0 0 -1 0 351.9)"/></clipPath><clipPath id="B"><path d="m728.3 23.4h25.3v14h-25.3z" transform="matrix(1 0 0 -1 0 351.9)"/></clipPath><clipPath id="C"><path d="m780.5 23.4h25.3v14h-25.3z" transform="matrix(1 0 0 -1 0 351.9)"/></clipPath><clipPath id="D"><path d="m832.7 23.4h25.2v14h-25.2z" transform="matrix(1 0 0 -1 0 351.9)"/></clipPath><clipPath id="E"><path d="m884.9 23.4h25.1v14h-25z" transform="matrix(1 0 0 -1 0 351.9)"/></clipPath><clipPath id="F"><path d="m937 23.4h25.3v14h-25.3z" transform="matrix(1 0 0 -1 0 351.9)"/></clipPath><clipPath id="G"><path d="m989.2 23.4h25.3v14h-25.3z" transform="matrix(1 0 0 -1 0 351.9)"/></clipPath><clipPath id="H"><path d="m1041.4 23.4h25.2v14h-25.2z" transform="matrix(1 0 0 -1 0 351.9)"/></clipPath><clipPath id="I"><path d="m1093.6 23.4h25.2v14h-25.2z" transform="matrix(1 0 0 -1 0 351.9)"/></clipPath><clipPath id="J"><path d="m1145.7 23.4h25.3v14h-25.3z" transform="matrix(1 0 0 -1 0 351.9)"/></clipPath><clipPath id="K"><path d="m1198 23.4h25.2v14h-25.3z" transform="matrix(1 0 0 -1 0 351.9)"/></clipPath><clipPath id="L"><path d="m1250 23.4h25.3v14h-25.2z" transform="matrix(1 0 0 -1 0 351.9)"/></clipPath><clipPath id="M"><path d="m220 40h21v2h-21z" transform="matrix(1 0 0 -1 0 351.9)"/></clipPath><clipPath id="N"><path d="m0 0h21v2h-21z" transform="translate(220 309.9)"/></clipPath><clipPath id="O"><path d="m0 0h21v2h-21z" transform="translate(220 309.9)"/></clipPath><clipPath id="P"><path d="m272 40h21v2h-21z" transform="matrix(1 0 0 -1 0 351.9)"/></clipPath><clipPath id="Q"><path d="m0 0h21v2h-21z" transform="translate(272 309.9)"/></clipPath><clipPath id="R"><path d="m0 0h21v2h-21z" transform="translate(272 309.9)"/></clipPath><clipPath id="S"><path d="m325 40h20v3h-20z" transform="matrix(1 0 0 -1 0 351.9)"/></clipPath><clipPath id="T"><path d="m0 0h20v3h-20z" transform="translate(325 308.9)"/></clipPath><clipPath id="U"><path d="m0 0h20v3h-20z" transform="translate(325 308.9)"/></clipPath><clipPath id="V"><path d="m377 40h21v4h-21z" transform="matrix(1 0 0 -1 0 351.9)"/></clipPath><clipPath id="W"><path d="m0 0h21v4h-21z" transform="translate(377 307.9)"/></clipPath><clipPath id="X"><path d="m0 0h21v4h-21z" transform="translate(377 307.9)"/></clipPath><clipPath id="Y"><path d="m429 40h21v9h-21z" transform="matrix(1 0 0 -1 0 351.9)"/></clipPath><clipPath id="Z"><path d="m0 0h21v9h-21z" transform="translate(429 302.9)"/></clipPath><clipPath id="aa"><path d="m0 0h21v9h-21z" transform="translate(429 302.9)"/></clipPath><clipPath id="ab"><path d="m481 40h21v14h-21z" transform="matrix(1 0 0 -1 0 351.9)"/></clipPath><clipPath id="ac"><path d="m0 0h21v14h-21z" transform="translate(481 297.9)"/></clipPath><clipPath id="ad"><path d="m0 0h21v14h-21z" transform="translate(481 297.9)"/></clipPath><clipPath id="ae"><path d="m533 40h21v17h-21z" transform="matrix(1 0 0 -1 0 351.9)"/></clipPath><clipPath id="af"><path d="m0 0h21v17h-21z" transform="translate(533 294.9)"/></clipPath><clipPath id="ag"><path d="m0 0h21v17h-21z" transform="translate(533 294.9)"/></clipPath><clipPath id="ah"><path d="m585 40h21v19h-21z" transform="matrix(1 0 0 -1 0 351.9)"/></clipPath><clipPath id="ai"><path d="m0 0h21v19h-21z" transform="translate(585 292.9)"/></clipPath><clipPath id="aj"><path d="m0 0h21v19h-21z" transform="translate(585 292.9)"/></clipPath><clipPath id="ak"><path d="m638 40h21v25h-21z" transform="matrix(1 0 0 -1 0 351.9)"/></clipPath><clipPath id="al"><path d="m0 0h21v25h-21z" transform="translate(638 286.9)"/></clipPath><clipPath id="am"><path d="m0 0h21v25h-21z" transform="translate(638 286.9)"/></clipPath><clipPath id="an"><path d="m690 40h21v29h-21z" transform="matrix(1 0 0 -1 0 351.9)"/></clipPath><clipPath id="ao"><path d="m0 0h21v29h-21z" transform="translate(690 282.9)"/></clipPath><clipPath id="ap"><path d="m0 0h21v29h-21z" transform="translate(690 282.9)"/></clipPath><clipPath id="aq"><path d="m742 40h21v30h-21z" transform="matrix(1 0 0 -1 0 351.9)"/></clipPath><clipPath id="ar"><path d="m0 0h21v30h-21z" transform="translate(742 281.9)"/></clipPath><clipPath id="as"><path d="m0 0h21v30h-21z" transform="translate(742 281.9)"/></clipPath><clipPath id="at"><path d="m794 40h21v26h-21z" transform="matrix(1 0 0 -1 0 351.9)"/></clipPath><clipPath id="au"><path d="m0 0h21v26h-21z" transform="translate(794 285.9)"/></clipPath><clipPath id="av"><path d="m0 0h21v26h-21z" transform="translate(794 285.9)"/></clipPath><clipPath id="aw"><path d="m846 40h21v25h-21z" transform="matrix(1 0 0 -1 0 351.9)"/></clipPath><clipPath id="ax"><path d="m0 0h21v25h-21z" transform="translate(846 286.9)"/></clipPath><clipPath id="ay"><path d="m0 0h21v25h-21z" transform="translate(846 286.9)"/></clipPath><clipPath id="az"><path d="m899 40h20v29h-20z" transform="matrix(1 0 0 -1 0 351.9)"/></clipPath><clipPath id="aA"><path d="m0 0h20v29h-20z" transform="translate(899 282.9)"/></clipPath><clipPath id="aB"><path d="m0 0h20v29h-20z" transform="translate(899 282.9)"/></clipPath><clipPath id="aC"><path d="m951 40h21v33h-21z" transform="matrix(1 0 0 -1 0 351.9)"/></clipPath><clipPath id="aD"><path d="m0 0h21v33h-21z" transform="translate(951 278.9)"/></clipPath><clipPath id="aE"><path d="m0 0h21v33h-21z" transform="translate(951 278.9)"/></clipPath><clipPath id="aF"><path d="m1003 40h21v33h-21z" transform="matrix(1 0 0 -1 0 351.9)"/></clipPath><clipPath id="aG"><path d="m0 0h21v33h-21z" transform="translate(1003 278.9)"/></clipPath><clipPath id="aH"><path d="m0 0h21v33h-21z" transform="translate(1003 278.9)"/></clipPath><clipPath id="aI"><path d="m1055 40h21v36h-21z" transform="matrix(1 0 0 -1 0 351.9)"/></clipPath><clipPath id="aJ"><path d="m0 0h21v36h-21z" transform="translate(1055 275.9)"/></clipPath><clipPath id="aK"><path d="m0 0h21v36h-21z" transform="translate(1055 275.9)"/></clipPath><clipPath id="aL"><path d="m1107 40h21v39h-21z" transform="matrix(1 0 0 -1 0 351.9)"/></clipPath><clipPath id="aM"><path d="m0 0h21v39h-21z" transform="translate(1107 272.9)"/></clipPath><clipPath id="aN"><path d="m0 0h21v39h-21z" transform="translate(1107 272.9)"/></clipPath><clipPath id="aO"><path d="m1159 40h21v48h-21z" transform="matrix(1 0 0 -1 0 351.9)"/></clipPath><clipPath id="aP"><path d="m0 0h21v48h-21z" transform="translate(1159 263.9)"/></clipPath><clipPath id="aQ"><path d="m0 0h21v48h-21z" transform="translate(1159 263.9)"/></clipPath><clipPath id="aR"><path d="m1212 40h20v51h-20z" transform="matrix(1 0 0 -1 0 351.9)"/></clipPath><clipPath id="aS"><path d="m0 0h20v51h-20z" transform="translate(1212 260.9)"/></clipPath><clipPath id="aT"><path d="m0 0h20v51h-20z" transform="translate(1212 260.9)"/></clipPath><clipPath id="aU"><path d="m1264 40h21v53h-21z" transform="matrix(1 0 0 -1 0 351.9)"/></clipPath><clipPath id="aV"><path d="m0 0h21v53h-21z" transform="translate(1264 258.9)"/></clipPath><clipPath id="aW"><path d="m0 0h21v53h-21z" transform="translate(1264 258.9)"/></clipPath><clipPath id="aX"><path d="m93 40h21v241h-21z" transform="matrix(1 0 0 -1 0 351.9)"/></clipPath><clipPath id="aY"><path d="m0 0h21v241h-21z" transform="translate(93 70.9)"/></clipPath><clipPath id="aZ"><path d="m0 0h21v241h-21z" transform="translate(93 70.9)"/></clipPath><clipPath id="a0"><path d="m145 40h21v246h-21z" transform="matrix(1 0 0 -1 0 351.9)"/></clipPath><clipPath id="a1"><path d="m0 0h21v246h-21z" transform="translate(145 65.9)"/></clipPath><clipPath id="a2"><path d="m0 0h21v246h-21z" transform="translate(145 65.9)"/></clipPath><clipPath id="a3"><path d="m197 40h21v164h-21z" transform="matrix(1 0 0 -1 0 351.9)"/></clipPath><clipPath id="a4"><path d="m0 0h21v164h-21z" transform="translate(197 147.9)"/></clipPath><clipPath id="a5"><path d="m0 0h21v164h-21z" transform="translate(197 147.9)"/></clipPath><clipPath id="a6"><path d="m249 40h21v182h-21z" transform="matrix(1 0 0 -1 0 351.9)"/></clipPath><clipPath id="a7"><path d="m0 0h21v182h-21z" transform="translate(249 129.9)"/></clipPath><clipPath id="a8"><path d="m0 0h21v182h-21z" transform="translate(249 129.9)"/></clipPath><clipPath id="a9"><path d="m302 40h21v151h-21z" transform="matrix(1 0 0 -1 0 351.9)"/></clipPath><clipPath id="ba"><path d="m0 0h21v151h-21z" transform="translate(302 160.9)"/></clipPath><clipPath id="bb"><path d="m0 0h21v151h-21z" transform="translate(302 160.9)"/></clipPath><clipPath id="bc"><path d="m354 40h21v183h-21z" transform="matrix(1 0 0 -1 0 351.9)"/></clipPath><clipPath id="bd"><path d="m0 0h21v183h-21z" transform="translate(354 128.9)"/></clipPath><clipPath id="be"><path d="m0 0h21v183h-21z" transform="translate(354 128.9)"/></clipPath><clipPath id="bf"><path d="m406 40h21v220h-21z" transform="matrix(1 0 0 -1 0 351.9)"/></clipPath><clipPath id="bg"><path d="m0 0h21v220h-21z" transform="translate(406 91.9)"/></clipPath><clipPath id="bh"><path d="m0 0h21v220h-21z" transform="translate(406 91.9)"/></clipPath><clipPath id="bi"><path d="m458 40h21v194h-21z" transform="matrix(1 0 0 -1 0 351.9)"/></clipPath><clipPath id="bj"><path d="m0 0h21v194h-21z" transform="translate(458 117.9)"/></clipPath><clipPath id="bk"><path d="m0 0h21v194h-21z" transform="translate(458 117.9)"/></clipPath><clipPath id="bl"><path d="m510 40h21v165h-21z" transform="matrix(1 0 0 -1 0 351.9)"/></clipPath><clipPath id="bm"><path d="m0 0h21v165h-21z" transform="translate(510 146.9)"/></clipPath><clipPath id="bn"><path d="m0 0h21v165h-21z" transform="translate(510 146.9)"/></clipPath><clipPath id="bo"><path d="m563 40h20v204h-20z" transform="matrix(1 0 0 -1 0 351.9)"/></clipPath><clipPath id="bp"><path d="m0 0h20v204h-20z" transform="translate(563 107.9)"/></clipPath><clipPath id="bq"><path d="m0 0h20v204h-20z" transform="translate(563 107.9)"/></clipPath><clipPath id="br"><path d="m615 40h21v196h-21z" transform="matrix(1 0 0 -1 0 351.9)"/></clipPath><clipPath id="bs"><path d="m0 0h21v196h-21z" transform="translate(615 115.9)"/></clipPath><clipPath id="bt"><path d="m0 0h21v196h-21z" transform="translate(615 115.9)"/></clipPath><clipPath id="bu"><path d="m667 40h21v205h-21z" transform="matrix(1 0 0 -1 0 351.9)"/></clipPath><clipPath id="bv"><path d="m0 0h21v205h-21z" transform="translate(667 106.9)"/></clipPath><clipPath id="bw"><path d="m0 0h21v205h-21z" transform="translate(667 106.9)"/></clipPath><clipPath id="bx"><path d="m719 40h21v250h-21z" transform="matrix(1 0 0 -1 0 351.9)"/></clipPath><clipPath id="by"><path d="m0 0h21v250h-21z" transform="translate(719 61.9)"/></clipPath><clipPath id="bz"><path d="m0 0h21v250h-21z" transform="translate(719 61.9)"/></clipPath><clipPath id="bA"><path d="m771 40h21v247h-21z" transform="matrix(1 0 0 -1 0 351.9)"/></clipPath><clipPath id="bB"><path d="m0 0h21v247h-21z" transform="translate(771 64.9)"/></clipPath><clipPath id="bC"><path d="m0 0h21v247h-21z" transform="translate(771 64.9)"/></clipPath><clipPath id="bD"><path d="m823 40h21v259h-21z" transform="matrix(1 0 0 -1 0 351.9)"/></clipPath><clipPath id="bE"><path d="m0 0h21v259h-21z" transform="translate(823 52.9)"/></clipPath><clipPath id="bF"><path d="m0 0h21v259h-21z" transform="translate(823 52.9)"/></clipPath><clipPath id="bG"><path d="m876 40h20v184h-20z" transform="matrix(1 0 0 -1 0 351.9)"/></clipPath><clipPath id="bH"><path d="m0 0h20v184h-20z" transform="translate(876 127.9)"/></clipPath><clipPath id="bI"><path d="m0 0h20v184h-20z" transform="translate(876 127.9)"/></clipPath><clipPath id="bJ"><path d="m928 40h21v157h-21z" transform="matrix(1 0 0 -1 0 351.9)"/></clipPath><clipPath id="bK"><path d="m0 0h21v157h-21z" transform="translate(928 154.9)"/></clipPath><clipPath id="bL"><path d="m0 0h21v157h-21z" transform="translate(928 154.9)"/></clipPath><clipPath id="bM"><path d="m980 40h21v189h-21z" transform="matrix(1 0 0 -1 0 351.9)"/></clipPath><clipPath id="bN"><path d="m0 0h21v189h-21z" transform="translate(980 122.9)"/></clipPath><clipPath id="bO"><path d="m0 0h21v189h-21z" transform="translate(980 122.9)"/></clipPath><clipPath id="bP"><path d="m1032 40h21v115h-21z" transform="matrix(1 0 0 -1 0 351.9)"/></clipPath><clipPath id="bQ"><path d="m0 0h21v115h-21z" transform="translate(1032 196.9)"/></clipPath><clipPath id="bR"><path d="m0 0h21v115h-21z" transform="translate(1032 196.9)"/></clipPath><clipPath id="bS"><path d="m1084 40h21v66h-21z" transform="matrix(1 0 0 -1 0 351.9)"/></clipPath><clipPath id="bT"><path d="m0 0h21v66h-21z" transform="translate(1084 245.9)"/></clipPath><clipPath id="bU"><path d="m0 0h21v66h-21z" transform="translate(1084 245.9)"/></clipPath><clipPath id="bV"><path d="m1136 40h21v18h-21z" transform="matrix(1 0 0 -1 0 351.9)"/></clipPath><clipPath id="bW"><path d="m0 0h21v18h-21z" transform="translate(1136 293.9)"/></clipPath><clipPath id="bX"><path d="m0 0h21v18h-21z" transform="translate(1136 293.9)"/></clipPath><clipPath id="bY"><path d="m1189 40h20v91h-20z" transform="matrix(1 0 0 -1 0 351.9)"/></clipPath><clipPath id="bZ"><path d="m0 0h20v91h-20z" transform="translate(1189 220.9)"/></clipPath><clipPath id="b0"><path d="m0 0h20v91h-20z" transform="translate(1189 220.9)"/></clipPath><clipPath id="b1"><path d="m1241 40h21v10h-21z" transform="matrix(1 0 0 -1 0 351.9)"/></clipPath><clipPath id="b2"><path d="m0 0h21v10h-21z" transform="translate(1241 301.9)"/></clipPath><clipPath id="b3"><path d="m0 0h21v10h-21z" transform="translate(1241 301.9)"/></clipPath><clipPath id="b4"><path d="m0 0h1390.3v351.9h-1390.3z" transform="matrix(1 0 0 -1 0 351.9)"/></clipPath><clipPath id="b5"><path d="m106.9 76.4h1163.8v232.2h-1163.7z" transform="matrix(1 0 0 -1 0 351.9)"/></clipPath><clipPath id="b6"><path d="m86.4 37.5h1204.8v271.1h-1204.8z" transform="matrix(1 0 0 -1 0 351.9)"/></clipPath><clipPath id="b7"><path d="m0 0h1390.3v351.9h-1390.3z" transform="matrix(1 0 0 -1 0 351.9)"/></clipPath><clipPath id="b8"><path d="m594 4.8h12v8.4h-12z" transform="matrix(1 0 0 -1 0 351.9)"/></clipPath><clipPath id="b9"><path d="m594 3h12v12h-12z" transform="matrix(1 0 0 -1 0 351.9)"/></clipPath><g clip-path="url(#a)" fill="none" stroke="#b8b8b8" stroke-width=".3"><path d="m89 262.4h1200m-1200-50h1200m-1200-50h1200m-1200-50h1200m-1200-50h1200m-1200-50h1200"/></g><g clip-path="url(#b)"><text font-family="Helvetica" font-size="10" transform="translate(1304.9 315.7)"><tspan x="0 5.6 8.3 11.1 14.4 16.7 18.9 21.1 23.3 28.9 32.2 37.8 40.6 50 57.2" y="0">0 trilliárd WUD</tspan></text></g><g clip-path="url(#c)"><text font-family="Helvetica" font-size="10" transform="translate(1304.9 255.7)"><tspan x="0 5.6 8.3 11.1 14.4 16.7 18.9 21.1 23.3 28.9 32.2 37.8 40.6 50 57.2" y="0">2 trilliárd WUD</tspan></text></g><g clip-path="url(#d)"><text font-family="Helvetica" font-size="10" transform="translate(1304.9 195.7)"><tspan x="0 5.6 8.3 11.1 14.4 16.7 18.9 21.1 23.3 28.9 32.2 37.8 40.6 50 57.2" y="0">4 trilliárd WUD</tspan></text></g><g clip-path="url(#e)"><text font-family="Helvetica" font-size="10" transform="translate(1304.9 135.7)"><tspan x="0 5.6 8.3 11.1 14.4 16.7 18.9 21.1 23.3 28.9 32.2 37.8 40.6 50 57.2" y="0">6 trilliárd WUD</tspan></text></g><g clip-path="url(#f)"><text font-family="Helvetica" font-size="10" transform="translate(1304.9 75.7)"><tspan x="0 5.6 8.3 11.1 14.4 16.7 18.9 21.1 23.3 28.9 32.2 37.8 40.6 50 57.2" y="0">8 trilliárd WUD</tspan></text></g><g clip-path="url(#g)"><text font-family="Helvetica" font-size="10" transform="translate(1299.3 15.7)"><tspan x="0 5.6 11.1 13.9 16.7 20 22.2 24.5 26.7 28.9 34.5 37.8 43.4 46.1 55.6 62.8" y="0">10 trilliárd WUD</tspan></text></g><g clip-path="url(#h)"><text font-family="Helvetica" font-size="10" transform="translate(11.6 315.7)"><tspan x="0 5.6 8.3 16.7 18.9 21.1 23.3 25.6 31.1 34.5 40 42.8 52.2 59.5" y="0">0 milliárd WUD</tspan></text></g><g clip-path="url(#i)"><text font-family="Helvetica" font-size="10" transform="translate(.5 265.7)"><tspan x="0 5.6 11.1 16.7 19.5 27.8 30 32.2 34.5 36.7 42.2 45.6 51.1 53.9 63.4 70.6" y="0">100 milliárd WUD</tspan></text></g><g clip-path="url(#j)"><text font-family="Helvetica" font-size="10" transform="translate(.5 215.7)"><tspan x="0 5.6 11.1 16.7 19.5 27.8 30 32.2 34.5 36.7 42.2 45.6 51.1 53.9 63.4 70.6" y="0">200 milliárd WUD</tspan></text></g><g clip-path="url(#k)"><text font-family="Helvetica" font-size="10" transform="translate(.5 165.7)"><tspan x="0 5.6 11.1 16.7 19.5 27.8 30 32.2 34.5 36.7 42.2 45.6 51.1 53.9 63.4 70.6" y="0">300 milliárd WUD</tspan></text></g><g clip-path="url(#l)"><text font-family="Helvetica" font-size="10" transform="translate(.5 115.7)"><tspan x="0 5.6 11.1 16.7 19.5 27.8 30 32.2 34.5 36.7 42.2 45.6 51.1 53.9 63.4 70.6" y="0">400 milliárd WUD</tspan></text></g><g clip-path="url(#m)"><text font-family="Helvetica" font-size="10" transform="translate(.5 65.7)"><tspan x="0 5.6 11.1 16.7 19.5 27.8 30 32.2 34.5 36.7 42.2 45.6 51.1 53.9 63.4 70.6" y="0">500 milliárd WUD</tspan></text></g><g clip-path="url(#n)"><text font-family="Helvetica" font-size="10" transform="translate(.5 15.7)"><tspan x="0 5.6 11.1 16.7 19.5 27.8 30 32.2 34.5 36.7 42.2 45.6 51.1 53.9 63.4 70.6" y="0">600 milliárd WUD</tspan></text></g><g clip-path="url(#o)"><path d="m88.5 312.4h1200" fill="none" stroke="#000" stroke-linecap="square"/></g><g clip-path="url(#p)"><text font-family="Helvetica" font-size="10" transform="translate(103.8 325.2)"><tspan x="0 5.6 11.1 16.7" y="0">2000</tspan></text></g><g clip-path="url(#q)"><text font-family="Helvetica" font-size="10" transform="translate(156 325.2)"><tspan x="0 5.6 11.1 16.7" y="0">2001</tspan></text></g><g clip-path="url(#r)"><text font-family="Helvetica" font-size="10" transform="translate(208.1 325.2)"><tspan x="0 5.6 11.1 16.7" y="0">2002</tspan></text></g><g clip-path="url(#s)"><text font-family="Helvetica" font-size="10" transform="translate(260.3 325.2)"><tspan x="0 5.6 11.1 16.7" y="0">2003</tspan></text></g><g clip-path="url(#t)"><text font-family="Helvetica" font-size="10" transform="translate(312.5 325.2)"><tspan x="0 5.6 11.1 16.7" y="0">2004</tspan></text></g><g clip-path="url(#u)"><text font-family="Helvetica" font-size="10" transform="translate(364.6 325.2)"><tspan x="0 5.6 11.1 16.7" y="0">2005</tspan></text></g><g clip-path="url(#v)"><text font-family="Helvetica" font-size="10" transform="translate(416.8 325.2)"><tspan x="0 5.6 11.1 16.7" y="0">2006</tspan></text></g><g clip-path="url(#w)"><text font-family="Helvetica" font-size="10" transform="translate(469 325.2)"><tspan x="0 5.6 11.1 16.7" y="0">2007</tspan></text></g><g clip-path="url(#x)"><text font-family="Helvetica" font-size="10" transform="translate(521.1 325.2)"><tspan x="0 5.6 11.1 16.7" y="0">2008</tspan></text></g><g clip-path="url(#y)"><text font-family="Helvetica" font-size="10" transform="translate(573.3 325.2)"><tspan x="0 5.6 11.1 16.7" y="0">2009</tspan></text></g><g clip-path="url(#z)"><text font-family="Helvetica" font-size="10" transform="translate(625.5 325.2)"><tspan x="0 5.6 11.1 16.7" y="0">2010</tspan></text></g><g clip-path="url(#A)"><text font-family="Helvetica" font-size="10" transform="translate(678 325.2)"><tspan x="0 5.6 11.1 15.9" y="0">2011</tspan></text></g><g clip-path="url(#B)"><text font-family="Helvetica" font-size="10" transform="translate(729.8 325.2)"><tspan x="0 5.6 11.1 16.7" y="0">2012</tspan></text></g><g clip-path="url(#C)"><text font-family="Helvetica" font-size="10" transform="translate(782 325.2)"><tspan x="0 5.6 11.1 16.7" y="0">2013</tspan></text></g><g clip-path="url(#D)"><text font-family="Helvetica" font-size="10" transform="translate(834.2 325.2)"><tspan x="0 5.6 11.1 16.7" y="0">2014</tspan></text></g><g clip-path="url(#E)"><text font-family="Helvetica" font-size="10" transform="translate(886.4 325.2)"><tspan x="0 5.6 11.1 16.7" y="0">2015</tspan></text></g><g clip-path="url(#F)"><text font-family="Helvetica" font-size="10" transform="translate(938.5 325.2)"><tspan x="0 5.6 11.1 16.7" y="0">2016</tspan></text></g><g clip-path="url(#G)"><text font-family="Helvetica" font-size="10" transform="translate(990.7 325.2)"><tspan x="0 5.6 11.1 16.7" y="0">2017</tspan></text></g><g clip-path="url(#H)"><text font-family="Helvetica" font-size="10" transform="translate(1042.9 325.2)"><tspan x="0 5.6 11.1 16.7" y="0">2018</tspan></text></g><g clip-path="url(#I)"><text font-family="Helvetica" font-size="10" transform="translate(1095 325.2)"><tspan x="0 5.6 11.1 16.7" y="0">2019</tspan></text></g><g clip-path="url(#J)"><text font-family="Helvetica" font-size="10" transform="translate(1147.2 325.2)"><tspan x="0 5.6 11.1 16.7" y="0">2020</tspan></text></g><g clip-path="url(#K)"><text font-family="Helvetica" font-size="10" transform="translate(1199.4 325.2)"><tspan x="0 5.6 11.1 16.7" y="0">2021</tspan></text></g><g clip-path="url(#L)"><text font-family="Helvetica" font-size="10" transform="translate(1251.6 325.2)"><tspan x="0 5.6 11.1 16.7" y="0">2022</tspan></text></g><g clip-path="url(#M)"><g clip-path="url(#N)"><g clip-path="url(#O)"><path d="m220 309.9h21v2h-21z" fill="#dcba3e"/></g></g></g><g clip-path="url(#P)"><g clip-path="url(#Q)"><g clip-path="url(#R)"><path d="m272 309.9h21v2h-21z" fill="#dcba3e"/></g></g></g><g clip-path="url(#S)"><g clip-path="url(#T)"><g clip-path="url(#U)"><path d="m325 308.9h20v3h-20z" fill="#dcba3e"/></g></g></g><g clip-path="url(#V)"><g clip-path="url(#W)"><g clip-path="url(#X)"><path d="m377 307.9h21v4h-21z" fill="#dcba3e"/></g></g></g><g clip-path="url(#Y)"><g clip-path="url(#Z)"><g clip-path="url(#aa)"><path d="m429 302.9h21v9h-21z" fill="#dcba3e"/></g></g></g><g clip-path="url(#ab)"><g clip-path="url(#ac)"><g clip-path="url(#ad)"><path d="m481 297.9h21v14h-21z" fill="#dcba3e"/></g></g></g><g clip-path="url(#ae)"><g clip-path="url(#af)"><g clip-path="url(#ag)"><path d="m533 294.9h21v17h-21z" fill="#dcba3e"/></g></g></g><g clip-path="url(#ah)"><g clip-path="url(#ai)"><g clip-path="url(#aj)"><path d="m585 292.9h21v19h-21z" fill="#dcba3e"/></g></g></g><g clip-path="url(#ak)"><g clip-path="url(#al)"><g clip-path="url(#am)"><path d="m638 286.9h21v25h-21z" fill="#dcba3e"/></g></g></g><g clip-path="url(#an)"><g clip-path="url(#ao)"><g clip-path="url(#ap)"><path d="m690 282.9h21v29h-21z" fill="#dcba3e"/></g></g></g><g clip-path="url(#aq)"><g clip-path="url(#ar)"><g clip-path="url(#as)"><path d="m742 281.9h21v30h-21z" fill="#dcba3e"/></g></g></g><g clip-path="url(#at)"><g clip-path="url(#au)"><g clip-path="url(#av)"><path d="m794 285.9h21v26h-21z" fill="#dcba3e"/></g></g></g><g clip-path="url(#aw)"><g clip-path="url(#ax)"><g clip-path="url(#ay)"><path d="m846 286.9h21v25h-21z" fill="#dcba3e"/></g></g></g><g clip-path="url(#az)"><g clip-path="url(#aA)"><g clip-path="url(#aB)"><path d="m899 282.9h20v29h-20z" fill="#dcba3e"/></g></g></g><g clip-path="url(#aC)"><g clip-path="url(#aD)"><g clip-path="url(#aE)"><path d="m951 278.9h21v33h-21z" fill="#dcba3e"/></g></g></g><g clip-path="url(#aF)"><g clip-path="url(#aG)"><g clip-path="url(#aH)"><path d="m1003 278.9h21v33h-21z" fill="#dcba3e"/></g></g></g><g clip-path="url(#aI)"><g clip-path="url(#aJ)"><g clip-path="url(#aK)"><path d="m1055 275.9h21v36h-21z" fill="#dcba3e"/></g></g></g><g clip-path="url(#aL)"><g clip-path="url(#aM)"><g clip-path="url(#aN)"><path d="m1107 272.9h21v39h-21z" fill="#dcba3e"/></g></g></g><g clip-path="url(#aO)"><g clip-path="url(#aP)"><g clip-path="url(#aQ)"><path d="m1159 263.9h21v48h-21z" fill="#dcba3e"/></g></g></g><g clip-path="url(#aR)"><g clip-path="url(#aS)"><g clip-path="url(#aT)"><path d="m1212 260.9h20v51h-20z" fill="#dcba3e"/></g></g></g><g clip-path="url(#aU)"><g clip-path="url(#aV)"><g clip-path="url(#aW)"><path d="m1264 258.9h21v53h-21z" fill="#dcba3e"/></g></g></g><g clip-path="url(#aX)"><g clip-path="url(#aY)"><g clip-path="url(#aZ)"><path d="m93 70.9h21v241h-21z" fill="#035494"/></g></g></g><g clip-path="url(#a0)"><g clip-path="url(#a1)"><g clip-path="url(#a2)"><path d="m145 65.9h21v246h-21z" fill="#035494"/></g></g></g><g clip-path="url(#a3)"><g clip-path="url(#a4)"><g clip-path="url(#a5)"><path d="m197 147.9h21v164h-21z" fill="#035494"/></g></g></g><g clip-path="url(#a6)"><g clip-path="url(#a7)"><g clip-path="url(#a8)"><path d="m249 129.9h21v182h-21z" fill="#035494"/></g></g></g><g clip-path="url(#a9)"><g clip-path="url(#ba)"><g clip-path="url(#bb)"><path d="m302 160.9h21v151h-21z" fill="#035494"/></g></g></g><g clip-path="url(#bc)"><g clip-path="url(#bd)"><g clip-path="url(#be)"><path d="m354 128.9h21v183h-21z" fill="#035494"/></g></g></g><g clip-path="url(#bf)"><g clip-path="url(#bg)"><g clip-path="url(#bh)"><path d="m406 91.9h21v220h-21z" fill="#035494"/></g></g></g><g clip-path="url(#bi)"><g clip-path="url(#bj)"><g clip-path="url(#bk)"><path d="m458 117.9h21v194h-21z" fill="#035494"/></g></g></g><g clip-path="url(#bl)"><g clip-path="url(#bm)"><g clip-path="url(#bn)"><path d="m510 146.9h21v165h-21z" fill="#035494"/></g></g></g><g clip-path="url(#bo)"><g clip-path="url(#bp)"><g clip-path="url(#bq)"><path d="m563 107.9h20v204h-20z" fill="#035494"/></g></g></g><g clip-path="url(#br)"><g clip-path="url(#bs)"><g clip-path="url(#bt)"><path d="m615 115.9h21v196h-21z" fill="#035494"/></g></g></g><g clip-path="url(#bu)"><g clip-path="url(#bv)"><g clip-path="url(#bw)"><path d="m667 106.9h21v205h-21z" fill="#035494"/></g></g></g><g clip-path="url(#bx)"><g clip-path="url(#by)"><g clip-path="url(#bz)"><path d="m719 61.9h21v250h-21z" fill="#035494"/></g></g></g><g clip-path="url(#bA)"><g clip-path="url(#bB)"><g clip-path="url(#bC)"><path d="m771 64.9h21v247h-21z" fill="#035494"/></g></g></g><g clip-path="url(#bD)"><g clip-path="url(#bE)"><g clip-path="url(#bF)"><path d="m823 52.9h21v259h-21z" fill="#035494"/></g></g></g><g clip-path="url(#bG)"><g clip-path="url(#bH)"><g clip-path="url(#bI)"><path d="m876 127.9h20v184h-20z" fill="#035494"/></g></g></g><g clip-path="url(#bJ)"><g clip-path="url(#bK)"><g clip-path="url(#bL)"><path d="m928 154.9h21v157h-21z" fill="#035494"/></g></g></g><g clip-path="url(#bM)"><g clip-path="url(#bN)"><g clip-path="url(#bO)"><path d="m980 122.9h21v189h-21z" fill="#035494"/></g></g></g><g clip-path="url(#bP)"><g clip-path="url(#bQ)"><g clip-path="url(#bR)"><path d="m1032 196.9h21v115h-21z" fill="#035494"/></g></g></g><g clip-path="url(#bS)"><g clip-path="url(#bT)"><g clip-path="url(#bU)"><path d="m1084 245.9h21v66h-21z" fill="#035494"/></g></g></g><g clip-path="url(#bV)"><g clip-path="url(#bW)"><g clip-path="url(#bX)"><path d="m1136 293.9h21v18h-21z" fill="#035494"/></g></g></g><g clip-path="url(#bY)"><g clip-path="url(#bZ)"><g clip-path="url(#b0)"><path d="m1189 220.9h20v91h-20z" fill="#035494"/></g></g></g><g clip-path="url(#b1)"><g clip-path="url(#b2)"><g clip-path="url(#b3)"><path d="m1241 301.9h21v10h-21z" fill="#035494"/></g></g></g><g clip-path="url(#b4)"><g clip-path="url(#b5)"><g clip-path="url(#b6)"><path d="m114.9 267.5 52.2-14.7 52.1-9.8 52.2-11 52.2-9 52.1-11 52.2-13.2 52.2-11.7 52.2-9.9 52.1-12.2 52.2-11.7 52.2-12.3 52.2-15 52.1-15 52.2-15.4 52.2-11 52.2-9.5 52.1-11.3 52.2-7 52.2-4 52.2-1 52.1-5.5 52.2-.6" fill="none" stroke="#70be41" stroke-width="4"/></g></g><path d="m207 336.9h12v12h-12z" fill="#035494"/><text font-family="Helvetica" font-size="15" transform="translate(228 348.5)"><tspan x="0 10 18.3 26.7 30.9 35 39.2 47.5 55 58.4 62.5 70.9 79.2 87.6 95.1 102.6 105.9 114.2 122.6 130.1 137.6 145.9 150.1 158.4" y="0">Adott évi pénzkibocsátás</tspan></text></g><g clip-path="url(#b7)"><g clip-path="url(#b8)"><g clip-path="url(#b9)"><path d="m594 342.9h12" fill="none" stroke="#70be41" stroke-width="2.1"/></g></g><text font-family="Helvetica" font-size="15" transform="translate(615 348.5)"><tspan x="0 7.5 15.8 19.2 22.5 30.9 38.4 42.5 50.9 59.2 67.5 75 87.5 95.9 104.2 112.6 120.1 123.4 130.9 139.2" y="0">Teljes pénzmennyiség</tspan></text><path d="m963 336.9h12v12h-12z" fill="#dcba3e"/><text font-family="Helvetica" font-size="15" transform="translate(983.8 348.5)"><tspan x="0 9.2 13.4 24.2 32.5 45 52.5 60.9 65 68.4 72.5 82.5 90.9 99.2 106.7 110.9 119.2 124.2 132.6 140.9 148.4 152.6 160.9 165.9 170.1 178.4 181.8 190.1 197.6" y="0">A Nemzeti Bank aranytartaléka</tspan></text></g></svg>