<svg viewBox="0 0 1362.3 351.9" xmlns="http://www.w3.org/2000/svg" xmlns:xlink="http://www.w3.org/1999/xlink"><clipPath id="a"><path d="m0 0h1362.3v351.9h-1362.3z" transform="matrix(1 0 0 -1 0 351.9)"/></clipPath><clipPath id="b"><path d="m1285.6 32.9h64.7v14h-64.7z" transform="matrix(1 0 0 -1 0 351.9)"/></clipPath><clipPath id="c"><path d="m1280 92.9h70.3v14h-70.3z" transform="matrix(1 0 0 -1 0 351.9)"/></clipPath><clipPath id="d"><path d="m1280 152.9h70.3v14h-70.3z" transform="matrix(1 0 0 -1 0 351.9)"/></clipPath><clipPath id="e"><path d="m1280 212.9h70.3v14h-70.3z" transform="matrix(1 0 0 -1 0 351.9)"/></clipPath><clipPath id="f"><path d="m1280 272.9h70.3v14h-70.3z" transform="matrix(1 0 0 -1 0 351.9)"/></clipPath><clipPath id="g"><path d="m1280 332.9h70.3v14h-70.3z" transform="matrix(1 0 0 -1 0 351.9)"/></clipPath><clipPath id="h"><path d="m29.6 32.9h32.4v14h-32.4z" transform="matrix(1 0 0 -1 0 351.9)"/></clipPath><clipPath id="i"><path d="m0 70.4h62v14h-62z" transform="matrix(1 0 0 -1 0 351.9)"/></clipPath><clipPath id="j"><path d="m0 107.9h62v14h-62z" transform="matrix(1 0 0 -1 0 351.9)"/></clipPath><clipPath id="k"><path d="m0 145.4h62v14h-62z" transform="matrix(1 0 0 -1 0 351.9)"/></clipPath><clipPath id="l"><path d="m0 182.9h62v14h-62z" transform="matrix(1 0 0 -1 0 351.9)"/></clipPath><clipPath id="m"><path d="m0 220.4h62v14h-62z" transform="matrix(1 0 0 -1 0 351.9)"/></clipPath><clipPath id="n"><path d="m0 257.9h62v14h-62z" transform="matrix(1 0 0 -1 0 351.9)"/></clipPath><clipPath id="o"><path d="m0 295.4h62v14h-62z" transform="matrix(1 0 0 -1 0 351.9)"/></clipPath><clipPath id="p"><path d="m0 332.9h62v14h-62z" transform="matrix(1 0 0 -1 0 351.9)"/></clipPath><clipPath id="q"><path d="m0 0h1362.3v351.9h-1362.3z" transform="matrix(1 0 0 -1 0 351.9)"/></clipPath><clipPath id="r"><path d="m83.4 23.4h25.3v14h-25.3z" transform="matrix(1 0 0 -1 0 351.9)"/></clipPath><clipPath id="s"><path d="m133.4 23.4h25.3v14h-25.3z" transform="matrix(1 0 0 -1 0 351.9)"/></clipPath><clipPath id="t"><path d="m183.4 23.4h25.3v14h-25.3z" transform="matrix(1 0 0 -1 0 351.9)"/></clipPath><clipPath id="u"><path d="m233.4 23.4h25.3v14h-25.3z" transform="matrix(1 0 0 -1 0 351.9)"/></clipPath><clipPath id="v"><path d="m283.4 23.4h25.3v14h-25.3z" transform="matrix(1 0 0 -1 0 351.9)"/></clipPath><clipPath id="w"><path d="m333.4 23.4h25.3v14h-25.3z" transform="matrix(1 0 0 -1 0 351.9)"/></clipPath><clipPath id="x"><path d="m383.4 23.4h25.3v14h-25.3z" transform="matrix(1 0 0 -1 0 351.9)"/></clipPath><clipPath id="y"><path d="m433.4 23.4h25.3v14h-25.3z" transform="matrix(1 0 0 -1 0 351.9)"/></clipPath><clipPath id="z"><path d="m483.4 23.4h25.3v14h-25.3z" transform="matrix(1 0 0 -1 0 351.9)"/></clipPath><clipPath id="A"><path d="m533.4 23.4h25.3v14h-25.3z" transform="matrix(1 0 0 -1 0 351.9)"/></clipPath><clipPath id="B"><path d="m583.4 23.4h25.3v14h-25.3z" transform="matrix(1 0 0 -1 0 351.9)"/></clipPath><clipPath id="C"><path d="m633.8 23.4h24.5v14h-24.5z" transform="matrix(1 0 0 -1 0 351.9)"/></clipPath><clipPath id="D"><path d="m683.4 23.4h25.3v14h-25.3z" transform="matrix(1 0 0 -1 0 351.9)"/></clipPath><clipPath id="E"><path d="m733.4 23.4h25.3v14h-25.3z" transform="matrix(1 0 0 -1 0 351.9)"/></clipPath><clipPath id="F"><path d="m783.4 23.4h25.3v14h-25.3z" transform="matrix(1 0 0 -1 0 351.9)"/></clipPath><clipPath id="G"><path d="m833.4 23.4h25.3v14h-25.3z" transform="matrix(1 0 0 -1 0 351.9)"/></clipPath><clipPath id="H"><path d="m883.4 23.4h25.3v14h-25.3z" transform="matrix(1 0 0 -1 0 351.9)"/></clipPath><clipPath id="I"><path d="m933.4 23.4h25.3v14h-25.3z" transform="matrix(1 0 0 -1 0 351.9)"/></clipPath><clipPath id="J"><path d="m983.4 23.4h25.3v14h-25.3z" transform="matrix(1 0 0 -1 0 351.9)"/></clipPath><clipPath id="K"><path d="m1033.4 23.4h25.3v14h-25.3z" transform="matrix(1 0 0 -1 0 351.9)"/></clipPath><clipPath id="L"><path d="m1083.4 23.4h25.3v14h-25.3z" transform="matrix(1 0 0 -1 0 351.9)"/></clipPath><clipPath id="M"><path d="m1133.4 23.4h25.3v14h-25.3z" transform="matrix(1 0 0 -1 0 351.9)"/></clipPath><clipPath id="N"><path d="m1183.4 23.4h25.3v14h-25.3z" transform="matrix(1 0 0 -1 0 351.9)"/></clipPath><clipPath id="O"><path d="m1233.4 23.4h25.3v14h-25.3z" transform="matrix(1 0 0 -1 0 351.9)"/></clipPath><clipPath id="P"><path d="m97 40h20v23h-20z" transform="matrix(1 0 0 -1 0 351.9)"/></clipPath><clipPath id="Q"><path d="m0 0h20v23h-20z" transform="translate(97 288.9)"/></clipPath><clipPath id="R"><path d="m0 0h20v23h-20z" transform="translate(97 288.9)"/></clipPath><clipPath id="S"><path d="m147 40h20v29h-20z" transform="matrix(1 0 0 -1 0 351.9)"/></clipPath><clipPath id="T"><path d="m0 0h20v29h-20z" transform="translate(147 282.9)"/></clipPath><clipPath id="U"><path d="m0 0h20v29h-20z" transform="translate(147 282.9)"/></clipPath><clipPath id="V"><path d="m197 40h20v35h-20z" transform="matrix(1 0 0 -1 0 351.9)"/></clipPath><clipPath id="W"><path d="m0 0h20v35h-20z" transform="translate(197 276.9)"/></clipPath><clipPath id="X"><path d="m0 0h20v35h-20z" transform="translate(197 276.9)"/></clipPath><clipPath id="Y"><path d="m247 40h20v51h-20z" transform="matrix(1 0 0 -1 0 351.9)"/></clipPath><clipPath id="Z"><path d="m0 0h20v51h-20z" transform="translate(247 260.9)"/></clipPath><clipPath id="aa"><path d="m0 0h20v51h-20z" transform="translate(247 260.9)"/></clipPath><clipPath id="ab"><path d="m297 40h20v62h-20z" transform="matrix(1 0 0 -1 0 351.9)"/></clipPath><clipPath id="ac"><path d="m0 0h20v62h-20z" transform="translate(297 249.9)"/></clipPath><clipPath id="ad"><path d="m0 0h20v62h-20z" transform="translate(297 249.9)"/></clipPath><clipPath id="ae"><path d="m347 40h20v75h-20z" transform="matrix(1 0 0 -1 0 351.9)"/></clipPath><clipPath id="af"><path d="m0 0h20v75h-20z" transform="translate(347 236.9)"/></clipPath><clipPath id="ag"><path d="m0 0h20v75h-20z" transform="translate(347 236.9)"/></clipPath><clipPath id="ah"><path d="m397 40h20v79h-20z" transform="matrix(1 0 0 -1 0 351.9)"/></clipPath><clipPath id="ai"><path d="m0 0h20v79h-20z" transform="translate(397 232.9)"/></clipPath><clipPath id="aj"><path d="m0 0h20v79h-20z" transform="translate(397 232.9)"/></clipPath><clipPath id="ak"><path d="m447 40h20v86h-20z" transform="matrix(1 0 0 -1 0 351.9)"/></clipPath><clipPath id="al"><path d="m0 0h20v86h-20z" transform="translate(447 225.9)"/></clipPath><clipPath id="am"><path d="m0 0h20v86h-20z" transform="translate(447 225.9)"/></clipPath><clipPath id="an"><path d="m497 40h20v68h-20z" transform="matrix(1 0 0 -1 0 351.9)"/></clipPath><clipPath id="ao"><path d="m0 0h20v68h-20z" transform="translate(497 243.9)"/></clipPath><clipPath id="ap"><path d="m0 0h20v68h-20z" transform="translate(497 243.9)"/></clipPath><clipPath id="aq"><path d="m547 40h20v87h-20z" transform="matrix(1 0 0 -1 0 351.9)"/></clipPath><clipPath id="ar"><path d="m0 0h20v87h-20z" transform="translate(547 224.9)"/></clipPath><clipPath id="as"><path d="m0 0h20v87h-20z" transform="translate(547 224.9)"/></clipPath><clipPath id="at"><path d="m597 40h20v114h-20z" transform="matrix(1 0 0 -1 0 351.9)"/></clipPath><clipPath id="au"><path d="m0 0h20v114h-20z" transform="translate(597 197.9)"/></clipPath><clipPath id="av"><path d="m0 0h20v114h-20z" transform="translate(597 197.9)"/></clipPath><clipPath id="aw"><path d="m647 40h20v123h-20z" transform="matrix(1 0 0 -1 0 351.9)"/></clipPath><clipPath id="ax"><path d="m0 0h20v123h-20z" transform="translate(647 188.9)"/></clipPath><clipPath id="ay"><path d="m0 0h20v123h-20z" transform="translate(647 188.9)"/></clipPath><clipPath id="az"><path d="m697 40h20v134h-20z" transform="matrix(1 0 0 -1 0 351.9)"/></clipPath><clipPath id="aA"><path d="m0 0h20v134h-20z" transform="translate(697 177.9)"/></clipPath><clipPath id="aB"><path d="m0 0h20v134h-20z" transform="translate(697 177.9)"/></clipPath><clipPath id="aC"><path d="m747 40h20v150h-20z" transform="matrix(1 0 0 -1 0 351.9)"/></clipPath><clipPath id="aD"><path d="m0 0h20v150h-20z" transform="translate(747 161.9)"/></clipPath><clipPath id="aE"><path d="m0 0h20v150h-20z" transform="translate(747 161.9)"/></clipPath><clipPath id="aF"><path d="m797 40h20v160h-20z" transform="matrix(1 0 0 -1 0 351.9)"/></clipPath><clipPath id="aG"><path d="m0 0h20v160h-20z" transform="translate(797 151.9)"/></clipPath><clipPath id="aH"><path d="m0 0h20v160h-20z" transform="translate(797 151.9)"/></clipPath><clipPath id="aI"><path d="m847 40h20v171h-20z" transform="matrix(1 0 0 -1 0 351.9)"/></clipPath><clipPath id="aJ"><path d="m0 0h20v171h-20z" transform="translate(847 140.9)"/></clipPath><clipPath id="aK"><path d="m0 0h20v171h-20z" transform="translate(847 140.9)"/></clipPath><clipPath id="aL"><path d="m897 40h20v181h-20z" transform="matrix(1 0 0 -1 0 351.9)"/></clipPath><clipPath id="aM"><path d="m0 0h20v181h-20z" transform="translate(897 130.9)"/></clipPath><clipPath id="aN"><path d="m0 0h20v181h-20z" transform="translate(897 130.9)"/></clipPath><clipPath id="aO"><path d="m947 40h20v190h-20z" transform="matrix(1 0 0 -1 0 351.9)"/></clipPath><clipPath id="aP"><path d="m0 0h20v190h-20z" transform="translate(947 121.9)"/></clipPath><clipPath id="aQ"><path d="m0 0h20v190h-20z" transform="translate(947 121.9)"/></clipPath><clipPath id="aR"><path d="m997 40h20v198h-20z" transform="matrix(1 0 0 -1 0 351.9)"/></clipPath><clipPath id="aS"><path d="m0 0h20v198h-20z" transform="translate(997 113.9)"/></clipPath><clipPath id="aT"><path d="m0 0h20v198h-20z" transform="translate(997 113.9)"/></clipPath><clipPath id="aU"><path d="m1047 40h20v201h-20z" transform="matrix(1 0 0 -1 0 351.9)"/></clipPath><clipPath id="aV"><path d="m0 0h20v201h-20z" transform="translate(1047 110.9)"/></clipPath><clipPath id="aW"><path d="m0 0h20v201h-20z" transform="translate(1047 110.9)"/></clipPath><clipPath id="aX"><path d="m1097 40h20v206h-20z" transform="matrix(1 0 0 -1 0 351.9)"/></clipPath><clipPath id="aY"><path d="m0 0h20v206h-20z" transform="translate(1097 105.9)"/></clipPath><clipPath id="aZ"><path d="m0 0h20v206h-20z" transform="translate(1097 105.9)"/></clipPath><clipPath id="a0"><path d="m1147 40h20v196h-20z" transform="matrix(1 0 0 -1 0 351.9)"/></clipPath><clipPath id="a1"><path d="m0 0h20v196h-20z" transform="translate(1147 115.9)"/></clipPath><clipPath id="a2"><path d="m0 0h20v196h-20z" transform="translate(1147 115.9)"/></clipPath><clipPath id="a3"><path d="m1197 40h20v203h-20z" transform="matrix(1 0 0 -1 0 351.9)"/></clipPath><clipPath id="a4"><path d="m0 0h20v203h-20z" transform="translate(1197 108.9)"/></clipPath><clipPath id="a5"><path d="m0 0h20v203h-20z" transform="translate(1197 108.9)"/></clipPath><clipPath id="a6"><path d="m1247 40h20v201h-20z" transform="matrix(1 0 0 -1 0 351.9)"/></clipPath><clipPath id="a7"><path d="m0 0h20v201h-20z" transform="translate(1247 110.9)"/></clipPath><clipPath id="a8"><path d="m0 0h20v201h-20z" transform="translate(1247 110.9)"/></clipPath><clipPath id="a9"><path d="m75 40h20v9h-20z" transform="matrix(1 0 0 -1 0 351.9)"/></clipPath><clipPath id="ba"><path d="m0 0h20v9h-20z" transform="translate(75 302.9)"/></clipPath><clipPath id="bb"><path d="m0 0h20v9h-20z" transform="translate(75 302.9)"/></clipPath><clipPath id="bc"><path d="m125 40h20v9h-20z" transform="matrix(1 0 0 -1 0 351.9)"/></clipPath><clipPath id="bd"><path d="m0 0h20v9h-20z" transform="translate(125 302.9)"/></clipPath><clipPath id="be"><path d="m0 0h20v9h-20z" transform="translate(125 302.9)"/></clipPath><clipPath id="bf"><path d="m175 40h20v22h-20z" transform="matrix(1 0 0 -1 0 351.9)"/></clipPath><clipPath id="bg"><path d="m0 0h20v22h-20z" transform="translate(175 289.9)"/></clipPath><clipPath id="bh"><path d="m0 0h20v22h-20z" transform="translate(175 289.9)"/></clipPath><clipPath id="bi"><path d="m225 40h20v29h-20z" transform="matrix(1 0 0 -1 0 351.9)"/></clipPath><clipPath id="bj"><path d="m0 0h20v29h-20z" transform="translate(225 282.9)"/></clipPath><clipPath id="bk"><path d="m0 0h20v29h-20z" transform="translate(225 282.9)"/></clipPath><clipPath id="bl"><path d="m275 40h20v41h-20z" transform="matrix(1 0 0 -1 0 351.9)"/></clipPath><clipPath id="bm"><path d="m0 0h20v41h-20z" transform="translate(275 270.9)"/></clipPath><clipPath id="bn"><path d="m0 0h20v41h-20z" transform="translate(275 270.9)"/></clipPath><clipPath id="bo"><path d="m325 40h20v57h-20z" transform="matrix(1 0 0 -1 0 351.9)"/></clipPath><clipPath id="bp"><path d="m0 0h20v57h-20z" transform="translate(325 254.9)"/></clipPath><clipPath id="bq"><path d="m0 0h20v57h-20z" transform="translate(325 254.9)"/></clipPath><clipPath id="br"><path d="m375 40h20v73h-20z" transform="matrix(1 0 0 -1 0 351.9)"/></clipPath><clipPath id="bs"><path d="m0 0h20v73h-20z" transform="translate(375 238.9)"/></clipPath><clipPath id="bt"><path d="m0 0h20v73h-20z" transform="translate(375 238.9)"/></clipPath><clipPath id="bu"><path d="m425 40h20v60h-20z" transform="matrix(1 0 0 -1 0 351.9)"/></clipPath><clipPath id="bv"><path d="m0 0h20v60h-20z" transform="translate(425 251.9)"/></clipPath><clipPath id="bw"><path d="m0 0h20v60h-20z" transform="translate(425 251.9)"/></clipPath><clipPath id="bx"><path d="m475 40h20v80h-20z" transform="matrix(1 0 0 -1 0 351.9)"/></clipPath><clipPath id="by"><path d="m0 0h20v80h-20z" transform="translate(475 231.9)"/></clipPath><clipPath id="bz"><path d="m0 0h20v80h-20z" transform="translate(475 231.9)"/></clipPath><clipPath id="bA"><path d="m525 40h20v103h-20z" transform="matrix(1 0 0 -1 0 351.9)"/></clipPath><clipPath id="bB"><path d="m0 0h20v103h-20z" transform="translate(525 208.9)"/></clipPath><clipPath id="bC"><path d="m0 0h20v103h-20z" transform="translate(525 208.9)"/></clipPath><clipPath id="bD"><path d="m575 40h20v116h-20z" transform="matrix(1 0 0 -1 0 351.9)"/></clipPath><clipPath id="bE"><path d="m0 0h20v116h-20z" transform="translate(575 195.9)"/></clipPath><clipPath id="bF"><path d="m0 0h20v116h-20z" transform="translate(575 195.9)"/></clipPath><clipPath id="bG"><path d="m625 40h20v128h-20z" transform="matrix(1 0 0 -1 0 351.9)"/></clipPath><clipPath id="bH"><path d="m0 0h20v128h-20z" transform="translate(625 183.9)"/></clipPath><clipPath id="bI"><path d="m0 0h20v128h-20z" transform="translate(625 183.9)"/></clipPath><clipPath id="bJ"><path d="m675 40h20v138h-20z" transform="matrix(1 0 0 -1 0 351.9)"/></clipPath><clipPath id="bK"><path d="m0 0h20v138h-20z" transform="translate(675 173.9)"/></clipPath><clipPath id="bL"><path d="m0 0h20v138h-20z" transform="translate(675 173.9)"/></clipPath><clipPath id="bM"><path d="m725 40h20v149h-20z" transform="matrix(1 0 0 -1 0 351.9)"/></clipPath><clipPath id="bN"><path d="m0 0h20v149h-20z" transform="translate(725 162.9)"/></clipPath><clipPath id="bO"><path d="m0 0h20v149h-20z" transform="translate(725 162.9)"/></clipPath><clipPath id="bP"><path d="m775 40h20v160h-20z" transform="matrix(1 0 0 -1 0 351.9)"/></clipPath><clipPath id="bQ"><path d="m0 0h20v160h-20z" transform="translate(775 151.9)"/></clipPath><clipPath id="bR"><path d="m0 0h20v160h-20z" transform="translate(775 151.9)"/></clipPath><clipPath id="bS"><path d="m825 40h20v159h-20z" transform="matrix(1 0 0 -1 0 351.9)"/></clipPath><clipPath id="bT"><path d="m0 0h20v159h-20z" transform="translate(825 152.9)"/></clipPath><clipPath id="bU"><path d="m0 0h20v159h-20z" transform="translate(825 152.9)"/></clipPath><clipPath id="bV"><path d="m875 40h20v171h-20z" transform="matrix(1 0 0 -1 0 351.9)"/></clipPath><clipPath id="bW"><path d="m0 0h20v171h-20z" transform="translate(875 140.9)"/></clipPath><clipPath id="bX"><path d="m0 0h20v171h-20z" transform="translate(875 140.9)"/></clipPath><clipPath id="bY"><path d="m925 40h20v185h-20z" transform="matrix(1 0 0 -1 0 351.9)"/></clipPath><clipPath id="bZ"><path d="m0 0h20v185h-20z" transform="translate(925 126.9)"/></clipPath><clipPath id="b0"><path d="m0 0h20v185h-20z" transform="translate(925 126.9)"/></clipPath><clipPath id="b1"><path d="m975 40h20v191h-20z" transform="matrix(1 0 0 -1 0 351.9)"/></clipPath><clipPath id="b2"><path d="m0 0h20v191h-20z" transform="translate(975 120.9)"/></clipPath><clipPath id="b3"><path d="m0 0h20v191h-20z" transform="translate(975 120.9)"/></clipPath><clipPath id="b4"><path d="m1025 40h20v202h-20z" transform="matrix(1 0 0 -1 0 351.9)"/></clipPath><clipPath id="b5"><path d="m0 0h20v202h-20z" transform="translate(1025 109.9)"/></clipPath><clipPath id="b6"><path d="m0 0h20v202h-20z" transform="translate(1025 109.9)"/></clipPath><clipPath id="b7"><path d="m1075 40h20v209h-20z" transform="matrix(1 0 0 -1 0 351.9)"/></clipPath><clipPath id="b8"><path d="m0 0h20v209h-20z" transform="translate(1075 102.9)"/></clipPath><clipPath id="b9"><path d="m0 0h20v209h-20z" transform="translate(1075 102.9)"/></clipPath><clipPath id="ca"><path d="m1125 40h20v241h-20z" transform="matrix(1 0 0 -1 0 351.9)"/></clipPath><clipPath id="cb"><path d="m0 0h20v241h-20z" transform="translate(1125 70.9)"/></clipPath><clipPath id="cc"><path d="m0 0h20v241h-20z" transform="translate(1125 70.9)"/></clipPath><clipPath id="cd"><path d="m1175 40h20v256h-20z" transform="matrix(1 0 0 -1 0 351.9)"/></clipPath><clipPath id="ce"><path d="m0 0h20v256h-20z" transform="translate(1175 55.9)"/></clipPath><clipPath id="cf"><path d="m0 0h20v256h-20z" transform="translate(1175 55.9)"/></clipPath><clipPath id="cg"><path d="m1225 40h20v267h-20z" transform="matrix(1 0 0 -1 0 351.9)"/></clipPath><clipPath id="ch"><path d="m0 0h20v267h-20z" transform="translate(1225 44.9)"/></clipPath><clipPath id="ci"><path d="m0 0h20v267h-20z" transform="translate(1225 44.9)"/></clipPath><clipPath id="cj"><path d="m0 0h1362.3v351.9h-1362.3z" transform="matrix(1 0 0 -1 0 351.9)"/></clipPath><clipPath id="ck"><path d="m88 38.7h1166v269.6h-1166z" transform="matrix(1 0 0 -1 0 351.9)"/></clipPath><clipPath id="cl"><path d="m68.6 37.5h1204.8v304.8h-1204.8z" transform="matrix(1 0 0 -1 0 351.9)"/></clipPath><clipPath id="cm"><path d="m0 0h1362.3v351.9h-1362.3z" transform="matrix(1 0 0 -1 0 351.9)"/></clipPath><clipPath id="cn"><path d="m615 4.8h11v8.4h-11z" transform="matrix(1 0 0 -1 0 351.9)"/></clipPath><clipPath id="co"><path d="m615 3h11v12h-11z" transform="matrix(1 0 0 -1 0 351.9)"/></clipPath><g clip-path="url(#a)" fill="none" stroke="#b8b8b8" stroke-width=".3"><path d="m71 274.4h1200m-1200-37h1200m-1200-38h1200m-1200-37h1200m-1200-38h1200m-1200-37h1200m-1200-38h1200m-1200-37h1200"/></g><g clip-path="url(#b)"><text font-family="Helvetica" font-size="10" transform="translate(1287.1 315.7)"><tspan x="0 5.6 8.3 11.1 14.4 16.7 18.9 21.1 23.3 28.9 32.2 37.8 40.6 47.8 54.5" y="0">0 trilliárd USD</tspan></text></g><g clip-path="url(#c)"><text font-family="Helvetica" font-size="10" transform="translate(1281.5 255.7)"><tspan x="0 5.6 11.1 13.9 16.7 20 22.2 24.5 26.7 28.9 34.5 37.8 43.4 46.1 53.4 60" y="0">12 trilliárd USD</tspan></text></g><g clip-path="url(#d)"><text font-family="Helvetica" font-size="10" transform="translate(1281.5 195.7)"><tspan x="0 5.6 11.1 13.9 16.7 20 22.2 24.5 26.7 28.9 34.5 37.8 43.4 46.1 53.4 60" y="0">24 trilliárd USD</tspan></text></g><g clip-path="url(#e)"><text font-family="Helvetica" font-size="10" transform="translate(1281.5 135.7)"><tspan x="0 5.6 11.1 13.9 16.7 20 22.2 24.5 26.7 28.9 34.5 37.8 43.4 46.1 53.4 60" y="0">36 trilliárd USD</tspan></text></g><g clip-path="url(#f)"><text font-family="Helvetica" font-size="10" transform="translate(1281.5 75.7)"><tspan x="0 5.6 11.1 13.9 16.7 20 22.2 24.5 26.7 28.9 34.5 37.8 43.4 46.1 53.4 60" y="0">48 trilliárd USD</tspan></text></g><g clip-path="url(#g)"><text font-family="Helvetica" font-size="10" transform="translate(1281.5 15.7)"><tspan x="0 5.6 11.1 13.9 16.7 20 22.2 24.5 26.7 28.9 34.5 37.8 43.4 46.1 53.4 60" y="0">60 trilliárd USD</tspan></text></g><g font-family="Helvetica" font-size="10"><g clip-path="url(#h)"><text transform="translate(31 315.7)"><tspan x="0" y="0">0</tspan></text><text transform="translate(31 315.7)" xml:space="preserve"><tspan x="5.6" y="0"></tspan></text><text transform="translate(31 315.7)"><tspan x="8.3 15.6 22.2" y="0">USD</tspan></text></g><g clip-path="url(#i)"><text transform="translate(.5 278.2)"><tspan x="0 5.6 11.1" y="0">100</tspan></text><text transform="translate(.5 278.2)" xml:space="preserve"><tspan x="16.7" y="0"></tspan></text><text transform="translate(.5 278.2)"><tspan x="19.5 25 30.6" y="0">000</tspan></text><text transform="translate(.5 278.2)" xml:space="preserve"><tspan x="36.1" y="0"></tspan></text><text transform="translate(.5 278.2)"><tspan x="38.9 46.1 52.8" y="0">USD</tspan></text></g><g clip-path="url(#j)"><text transform="translate(.5 240.7)"><tspan x="0 5.6 11.1" y="0">200</tspan></text><text transform="translate(.5 240.7)" xml:space="preserve"><tspan x="16.7" y="0"></tspan></text><text transform="translate(.5 240.7)"><tspan x="19.5 25 30.6" y="0">000</tspan></text><text transform="translate(.5 240.7)" xml:space="preserve"><tspan x="36.1" y="0"></tspan></text><text transform="translate(.5 240.7)"><tspan x="38.9 46.1 52.8" y="0">USD</tspan></text></g><g clip-path="url(#k)"><text transform="translate(.5 203.2)"><tspan x="0 5.6 11.1" y="0">300</tspan></text><text transform="translate(.5 203.2)" xml:space="preserve"><tspan x="16.7" y="0"></tspan></text><text transform="translate(.5 203.2)"><tspan x="19.5 25 30.6" y="0">000</tspan></text><text transform="translate(.5 203.2)" xml:space="preserve"><tspan x="36.1" y="0"></tspan></text><text transform="translate(.5 203.2)"><tspan x="38.9 46.1 52.8" y="0">USD</tspan></text></g><g clip-path="url(#l)"><text transform="translate(.5 165.7)"><tspan x="0 5.6 11.1" y="0">400</tspan></text><text transform="translate(.5 165.7)" xml:space="preserve"><tspan x="16.7" y="0"></tspan></text><text transform="translate(.5 165.7)"><tspan x="19.5 25 30.6" y="0">000</tspan></text><text transform="translate(.5 165.7)" xml:space="preserve"><tspan x="36.1" y="0"></tspan></text><text transform="translate(.5 165.7)"><tspan x="38.9 46.1 52.8" y="0">USD</tspan></text></g><g clip-path="url(#m)"><text transform="translate(.5 128.2)"><tspan x="0 5.6 11.1" y="0">500</tspan></text><text transform="translate(.5 128.2)" xml:space="preserve"><tspan x="16.7" y="0"></tspan></text><text transform="translate(.5 128.2)"><tspan x="19.5 25 30.6" y="0">000</tspan></text><text transform="translate(.5 128.2)" xml:space="preserve"><tspan x="36.1" y="0"></tspan></text><text transform="translate(.5 128.2)"><tspan x="38.9 46.1 52.8" y="0">USD</tspan></text></g><g clip-path="url(#n)"><text transform="translate(.5 90.7)"><tspan x="0 5.6 11.1" y="0">600</tspan></text><text transform="translate(.5 90.7)" xml:space="preserve"><tspan x="16.7" y="0"></tspan></text><text transform="translate(.5 90.7)"><tspan x="19.5 25 30.6" y="0">000</tspan></text><text transform="translate(.5 90.7)" xml:space="preserve"><tspan x="36.1" y="0"></tspan></text><text transform="translate(.5 90.7)"><tspan x="38.9 46.1 52.8" y="0">USD</tspan></text></g><g clip-path="url(#o)"><text transform="translate(.5 53.2)"><tspan x="0 5.6 11.1" y="0">700</tspan></text><text transform="translate(.5 53.2)" xml:space="preserve"><tspan x="16.7" y="0"></tspan></text><text transform="translate(.5 53.2)"><tspan x="19.5 25 30.6" y="0">000</tspan></text><text transform="translate(.5 53.2)" xml:space="preserve"><tspan x="36.1" y="0"></tspan></text><text transform="translate(.5 53.2)"><tspan x="38.9 46.1 52.8" y="0">USD</tspan></text></g><g clip-path="url(#p)"><text transform="translate(.5 15.7)"><tspan x="0 5.6 11.1" y="0">800</tspan></text><text transform="translate(.5 15.7)" xml:space="preserve"><tspan x="16.7" y="0"></tspan></text><text transform="translate(.5 15.7)"><tspan x="19.5 25 30.6" y="0">000</tspan></text><text transform="translate(.5 15.7)" xml:space="preserve"><tspan x="36.1" y="0"></tspan></text><text transform="translate(.5 15.7)"><tspan x="38.9 46.1 52.8" y="0">USD</tspan></text></g></g><g clip-path="url(#q)"><path d="m71.5 312.4h1200" fill="none" stroke="#000" stroke-linecap="square"/></g><g clip-path="url(#r)"><text font-family="Helvetica" font-size="10" transform="translate(85 325.2)"><tspan x="0 5.6 11.1 16.7" y="0">2000</tspan></text></g><g clip-path="url(#s)"><text font-family="Helvetica" font-size="10" transform="translate(135 325.2)"><tspan x="0 5.6 11.1 16.7" y="0">2001</tspan></text></g><g clip-path="url(#t)"><text font-family="Helvetica" font-size="10" transform="translate(185 325.2)"><tspan x="0 5.6 11.1 16.7" y="0">2002</tspan></text></g><g clip-path="url(#u)"><text font-family="Helvetica" font-size="10" transform="translate(235 325.2)"><tspan x="0 5.6 11.1 16.7" y="0">2003</tspan></text></g><g clip-path="url(#v)"><text font-family="Helvetica" font-size="10" transform="translate(285 325.2)"><tspan x="0 5.6 11.1 16.7" y="0">2004</tspan></text></g><g clip-path="url(#w)"><text font-family="Helvetica" font-size="10" transform="translate(335 325.2)"><tspan x="0 5.6 11.1 16.7" y="0">2005</tspan></text></g><g clip-path="url(#x)"><text font-family="Helvetica" font-size="10" transform="translate(385 325.2)"><tspan x="0 5.6 11.1 16.7" y="0">2006</tspan></text></g><g clip-path="url(#y)"><text font-family="Helvetica" font-size="10" transform="translate(435 325.2)"><tspan x="0 5.6 11.1 16.7" y="0">2007</tspan></text></g><g clip-path="url(#z)"><text font-family="Helvetica" font-size="10" transform="translate(485 325.2)"><tspan x="0 5.6 11.1 16.7" y="0">2008</tspan></text></g><g clip-path="url(#A)"><text font-family="Helvetica" font-size="10" transform="translate(535 325.2)"><tspan x="0 5.6 11.1 16.7" y="0">2009</tspan></text></g><g clip-path="url(#B)"><text font-family="Helvetica" font-size="10" transform="translate(585 325.2)"><tspan x="0 5.6 11.1 16.7" y="0">2010</tspan></text></g><g clip-path="url(#C)"><text font-family="Helvetica" font-size="10" transform="translate(635.3 325.2)"><tspan x="0 5.6 11.1 15.9" y="0">2011</tspan></text></g><g clip-path="url(#D)"><text font-family="Helvetica" font-size="10" transform="translate(685 325.2)"><tspan x="0 5.6 11.1 16.7" y="0">2012</tspan></text></g><g clip-path="url(#E)"><text font-family="Helvetica" font-size="10" transform="translate(735 325.2)"><tspan x="0 5.6 11.1 16.7" y="0">2013</tspan></text></g><g clip-path="url(#F)"><text font-family="Helvetica" font-size="10" transform="translate(785 325.2)"><tspan x="0 5.6 11.1 16.7" y="0">2014</tspan></text></g><g clip-path="url(#G)"><text font-family="Helvetica" font-size="10" transform="translate(835 325.2)"><tspan x="0 5.6 11.1 16.7" y="0">2015</tspan></text></g><g clip-path="url(#H)"><text font-family="Helvetica" font-size="10" transform="translate(885 325.2)"><tspan x="0 5.6 11.1 16.7" y="0">2016</tspan></text></g><g clip-path="url(#I)"><text font-family="Helvetica" font-size="10" transform="translate(935 325.2)"><tspan x="0 5.6 11.1 16.7" y="0">2017</tspan></text></g><g clip-path="url(#J)"><text font-family="Helvetica" font-size="10" transform="translate(985 325.2)"><tspan x="0 5.6 11.1 16.7" y="0">2018</tspan></text></g><g clip-path="url(#K)"><text font-family="Helvetica" font-size="10" transform="translate(1035 325.2)"><tspan x="0 5.6 11.1 16.7" y="0">2019</tspan></text></g><g clip-path="url(#L)"><text font-family="Helvetica" font-size="10" transform="translate(1085 325.2)"><tspan x="0 5.6 11.1 16.7" y="0">2020</tspan></text></g><g clip-path="url(#M)"><text font-family="Helvetica" font-size="10" transform="translate(1135 325.2)"><tspan x="0 5.6 11.1 16.7" y="0">2021</tspan></text></g><g clip-path="url(#N)"><text font-family="Helvetica" font-size="10" transform="translate(1185 325.2)"><tspan x="0 5.6 11.1 16.7" y="0">2022</tspan></text></g><g clip-path="url(#O)"><text font-family="Helvetica" font-size="10" transform="translate(1235 325.2)"><tspan x="0 5.6 11.1 16.7" y="0">2023</tspan></text></g><g clip-path="url(#P)"><g clip-path="url(#Q)"><g clip-path="url(#R)"><path d="m97 288.9h20v23h-20z" fill="#dcba3e"/></g></g></g><g clip-path="url(#S)"><g clip-path="url(#T)"><g clip-path="url(#U)"><path d="m147 282.9h20v29h-20z" fill="#dcba3e"/></g></g></g><g clip-path="url(#V)"><g clip-path="url(#W)"><g clip-path="url(#X)"><path d="m197 276.9h20v35h-20z" fill="#dcba3e"/></g></g></g><g clip-path="url(#Y)"><g clip-path="url(#Z)"><g clip-path="url(#aa)"><path d="m247 260.9h20v51h-20z" fill="#dcba3e"/></g></g></g><g clip-path="url(#ab)"><g clip-path="url(#ac)"><g clip-path="url(#ad)"><path d="m297 249.9h20v62h-20z" fill="#dcba3e"/></g></g></g><g clip-path="url(#ae)"><g clip-path="url(#af)"><g clip-path="url(#ag)"><path d="m347 236.9h20v75h-20z" fill="#dcba3e"/></g></g></g><g clip-path="url(#ah)"><g clip-path="url(#ai)"><g clip-path="url(#aj)"><path d="m397 232.9h20v79h-20z" fill="#dcba3e"/></g></g></g><g clip-path="url(#ak)"><g clip-path="url(#al)"><g clip-path="url(#am)"><path d="m447 225.9h20v86h-20z" fill="#dcba3e"/></g></g></g><g clip-path="url(#an)"><g clip-path="url(#ao)"><g clip-path="url(#ap)"><path d="m497 243.9h20v68h-20z" fill="#dcba3e"/></g></g></g><g clip-path="url(#aq)"><g clip-path="url(#ar)"><g clip-path="url(#as)"><path d="m547 224.9h20v87h-20z" fill="#dcba3e"/></g></g></g><g clip-path="url(#at)"><g clip-path="url(#au)"><g clip-path="url(#av)"><path d="m597 197.9h20v114h-20z" fill="#dcba3e"/></g></g></g><g clip-path="url(#aw)"><g clip-path="url(#ax)"><g clip-path="url(#ay)"><path d="m647 188.9h20v123h-20z" fill="#dcba3e"/></g></g></g><g clip-path="url(#az)"><g clip-path="url(#aA)"><g clip-path="url(#aB)"><path d="m697 177.9h20v134h-20z" fill="#dcba3e"/></g></g></g><g clip-path="url(#aC)"><g clip-path="url(#aD)"><g clip-path="url(#aE)"><path d="m747 161.9h20v150h-20z" fill="#dcba3e"/></g></g></g><g clip-path="url(#aF)"><g clip-path="url(#aG)"><g clip-path="url(#aH)"><path d="m797 151.9h20v160h-20z" fill="#dcba3e"/></g></g></g><g clip-path="url(#aI)"><g clip-path="url(#aJ)"><g clip-path="url(#aK)"><path d="m847 140.9h20v171h-20z" fill="#dcba3e"/></g></g></g><g clip-path="url(#aL)"><g clip-path="url(#aM)"><g clip-path="url(#aN)"><path d="m897 130.9h20v181h-20z" fill="#dcba3e"/></g></g></g><g clip-path="url(#aO)"><g clip-path="url(#aP)"><g clip-path="url(#aQ)"><path d="m947 121.9h20v190h-20z" fill="#dcba3e"/></g></g></g><g clip-path="url(#aR)"><g clip-path="url(#aS)"><g clip-path="url(#aT)"><path d="m997 113.9h20v198h-20z" fill="#dcba3e"/></g></g></g><g clip-path="url(#aU)"><g clip-path="url(#aV)"><g clip-path="url(#aW)"><path d="m1047 110.9h20v201h-20z" fill="#dcba3e"/></g></g></g><g clip-path="url(#aX)"><g clip-path="url(#aY)"><g clip-path="url(#aZ)"><path d="m1097 105.9h20v206h-20z" fill="#dcba3e"/></g></g></g><g clip-path="url(#a0)"><g clip-path="url(#a1)"><g clip-path="url(#a2)"><path d="m1147 115.9h20v196h-20z" fill="#dcba3e"/></g></g></g><g clip-path="url(#a3)"><g clip-path="url(#a4)"><g clip-path="url(#a5)"><path d="m1197 108.9h20v203h-20z" fill="#dcba3e"/></g></g></g><g clip-path="url(#a6)"><g clip-path="url(#a7)"><g clip-path="url(#a8)"><path d="m1247 110.9h20v201h-20z" fill="#dcba3e"/></g></g></g><g clip-path="url(#a9)"><g clip-path="url(#ba)"><g clip-path="url(#bb)"><path d="m75 302.9h20v9h-20z" fill="#035494"/></g></g></g><g clip-path="url(#bc)"><g clip-path="url(#bd)"><g clip-path="url(#be)"><path d="m125 302.9h20v9h-20z" fill="#035494"/></g></g></g><g clip-path="url(#bf)"><g clip-path="url(#bg)"><g clip-path="url(#bh)"><path d="m175 289.9h20v22h-20z" fill="#035494"/></g></g></g><g clip-path="url(#bi)"><g clip-path="url(#bj)"><g clip-path="url(#bk)"><path d="m225 282.9h20v29h-20z" fill="#035494"/></g></g></g><g clip-path="url(#bl)"><g clip-path="url(#bm)"><g clip-path="url(#bn)"><path d="m275 270.9h20v41h-20z" fill="#035494"/></g></g></g><g clip-path="url(#bo)"><g clip-path="url(#bp)"><g clip-path="url(#bq)"><path d="m325 254.9h20v57h-20z" fill="#035494"/></g></g></g><g clip-path="url(#br)"><g clip-path="url(#bs)"><g clip-path="url(#bt)"><path d="m375 238.9h20v73h-20z" fill="#035494"/></g></g></g><g clip-path="url(#bu)"><g clip-path="url(#bv)"><g clip-path="url(#bw)"><path d="m425 251.9h20v60h-20z" fill="#035494"/></g></g></g><g clip-path="url(#bx)"><g clip-path="url(#by)"><g clip-path="url(#bz)"><path d="m475 231.9h20v80h-20z" fill="#035494"/></g></g></g><g clip-path="url(#bA)"><g clip-path="url(#bB)"><g clip-path="url(#bC)"><path d="m525 208.9h20v103h-20z" fill="#035494"/></g></g></g><g clip-path="url(#bD)"><g clip-path="url(#bE)"><g clip-path="url(#bF)"><path d="m575 195.9h20v116h-20z" fill="#035494"/></g></g></g><g clip-path="url(#bG)"><g clip-path="url(#bH)"><g clip-path="url(#bI)"><path d="m625 183.9h20v128h-20z" fill="#035494"/></g></g></g><g clip-path="url(#bJ)"><g clip-path="url(#bK)"><g clip-path="url(#bL)"><path d="m675 173.9h20v138h-20z" fill="#035494"/></g></g></g><g clip-path="url(#bM)"><g clip-path="url(#bN)"><g clip-path="url(#bO)"><path d="m725 162.9h20v149h-20z" fill="#035494"/></g></g></g><g clip-path="url(#bP)"><g clip-path="url(#bQ)"><g clip-path="url(#bR)"><path d="m775 151.9h20v160h-20z" fill="#035494"/></g></g></g><g clip-path="url(#bS)"><g clip-path="url(#bT)"><g clip-path="url(#bU)"><path d="m825 152.9h20v159h-20z" fill="#035494"/></g></g></g><g clip-path="url(#bV)"><g clip-path="url(#bW)"><g clip-path="url(#bX)"><path d="m875 140.9h20v171h-20z" fill="#035494"/></g></g></g><g clip-path="url(#bY)"><g clip-path="url(#bZ)"><g clip-path="url(#b0)"><path d="m925 126.9h20v185h-20z" fill="#035494"/></g></g></g><g clip-path="url(#b1)"><g clip-path="url(#b2)"><g clip-path="url(#b3)"><path d="m975 120.9h20v191h-20z" fill="#035494"/></g></g></g><g clip-path="url(#b4)"><g clip-path="url(#b5)"><g clip-path="url(#b6)"><path d="m1025 109.9h20v202h-20z" fill="#035494"/></g></g></g><g clip-path="url(#b7)"><g clip-path="url(#b8)"><g clip-path="url(#b9)"><path d="m1075 102.9h20v209h-20z" fill="#035494"/></g></g></g><g clip-path="url(#ca)"><g clip-path="url(#cb)"><g clip-path="url(#cc)"><path d="m1125 70.9h20v241h-20z" fill="#035494"/></g></g></g><g clip-path="url(#cd)"><g clip-path="url(#ce)"><g clip-path="url(#cf)"><path d="m1175 55.9h20v256h-20z" fill="#035494"/></g></g></g><g clip-path="url(#cg)"><g clip-path="url(#ch)"><g clip-path="url(#ci)"><path d="m1225 44.9h20v267h-20z" fill="#035494"/></g></g></g><g clip-path="url(#cj)"><g clip-path="url(#ck)"><g clip-path="url(#cl)"><path d="m96 305.2 50-11.5 50-4.5 50-12 50-13 50-2.2 50-8.4 50 3.8 50 14.3 50 1.6 50-10.8 50-2.9 50-4.4 50-8.9 50-19 50-22.6 50-33 50-29.2 50-30.4 50-14.5 50-8.1 50-9.4 50-10.9 50-17.6" fill="none" stroke="#70be41" stroke-width="4"/></g></g><path d="m224 336.9h11v12h-11z" fill="#035494"/><g font-family="Helvetica" font-size="15"><text transform="translate(244.2 348.5)"><tspan x="0" y="0">T</tspan></text><text transform="translate(244.2 348.5)"><tspan x="9.2" y="0">ő</tspan></text><text transform="translate(244.2 348.5)"><tspan x="17.5 25 32.5 40.8 49.2 52.5 56.7 64.2 72.5 77.5 85.9 93.4 100.9 109.2 117.6 125.9 129.2 137.6" y="0">zsdei kereskedelem</tspan></text></g></g><g clip-path="url(#cm)"><g clip-path="url(#cn)"><g clip-path="url(#co)"><path d="m615 342.9h11" fill="none" stroke="#70be41" stroke-width="2.1"/></g></g><g font-family="Helvetica" font-size="15"><text transform="translate(635.3 348.5)"><tspan x="0 13.6 22 25.3 32.8 36.1 43.6 47 51.1" y="0">Waikiki t</tspan></text><text transform="translate(635.3 348.5)"><tspan x="55.3" y="0">ő</tspan></text><text transform="translate(635.3 348.5)"><tspan x="63.6 71.1 78.6 87 95.3 99.5 107.8 112.8 117 125.3" y="0">zsde érték</tspan></text></g><path d="m989 336.9h11v12h-11z" fill="#dcba3e"/><text font-family="Helvetica" font-size="15" transform="translate(1009.1 348.5)"><tspan x="0 13.6 22 25.3 32.8 36.1 43.6 47 51.1 54.5 62.8 71.1 79.5 83.6 87 95.3 103.7 112 117 125.3" y="0">Waikiki ingatlanárak</tspan></text></g></svg>